<?xml version="1.0" encoding="utf-8"?>
<!-- Generator: Adobe Illustrator 19.0.0, SVG Export Plug-In . SVG Version: 6.00 Build 0)  -->
<svg version="1.1" xmlns="http://www.w3.org/2000/svg" xmlns:xlink="http://www.w3.org/1999/xlink" x="0px" y="0px"
	 viewBox="0 0 595.3 841.9" style="enable-background:new 0 0 595.3 841.9;" xml:space="preserve">
<style type="text/css">
	.st0{fill:#757575;}
	.st1{fill:none;stroke:#1C75BC;stroke-width:10;stroke-miterlimit:10;}
	.st2{fill:#FFFFFF;}
	.st3{fill:#6FCACE;}
	.st4{fill:#020202;}
</style>
<g id="Calque_7">
	<g id="XMLID_8_">
		<g id="XMLID_570_">
			<path id="XMLID_580_" class="st0" d="M270.7,482.1c-12.2-1.3-24.2-3.6-36-6.6c-15.6-3.9-22.3,20.2-6.6,24.1
				c14,3.5,28.3,5.9,42.7,7.4c6.7,0.7,12.5-6.3,12.5-12.5C283.2,487.3,277.4,482.9,270.7,482.1L270.7,482.1z"/>
		</g>
	</g>
	<g id="XMLID_97_">
		<g id="XMLID_603_">
			<path id="XMLID_607_" class="st0" d="M273.4,486.6c-2,0-4,0.1-5.9-0.1c2.1,0.6,4.2,1.1,6.3,1.7c3.6,2.2-1.1-0.9-2.3-1.6
				c-1.8-1-3.9-1.7-5.9-2.2c-3-0.8-6-1.4-9.1-2c-6.4-1.3-13.8,1.8-15.4,8.7c-1.4,6.2,1.9,14,8.7,15.4c1.9,0.4,3.7,0.8,5.6,1.2
				c0.9,0.2,1.9,0.4,2.8,0.7c0.5,0.1,0.9,0.2,1.4,0.3c1.6,0.6,1.5,0.4-0.2-0.5c-1.8-1.1-1.8-1.1-0.1,0.2c0.5,0.5,1,0.9,1.6,1.2
				c1.6,0.9,3.2,1.5,5,1.7c2.6,0.3,5,0.4,7.6,0.3c6.5,0,12.8-5.7,12.5-12.5C285.6,492.4,280.4,486.6,273.4,486.6L273.4,486.6z"/>
		</g>
	</g>
</g>
<g id="Circle">
	<path id="XMLID_535_" class="st1" d="M285.3,190.5c-88.3,0-159.9,71.6-159.9,159.9S197,510.2,285.3,510.2s159.9-71.6,159.9-159.9
		S373.6,190.5,285.3,190.5z M186.4,467.7c1.3,0,1.3,2,0,2C185.1,469.7,185.1,467.7,186.4,467.7z M190.3,476.9
		c-3.5-1.7-5.6-5.3-8.2-8.1c-0.9-1,0.5-2.4,1.4-1.4c2.4,2.7,4.4,6.2,7.8,7.8C192.4,475.7,191.4,477.5,190.3,476.9z"/>
</g>
<g id="Color3">
	<g id="XMLID_323_">
		<g id="XMLID_529_">
			<path id="XMLID_533_" class="st2" d="M471.8,317.1c0.6,7.7-6.6,15.5-11,21.2c-4.8,6.2-10.2,12-15.9,17.4
				c-12.3,11.6-26.2,21.6-42.6,26c-17.4,4.7-35.3,9.2-53.4,5.8c-17.2-3.2-32.9-11.2-48.3-19.2c-3.9-2-8-4-11-7.2
				c-3-3.2-5-7.4-6.9-11.3c-4.7-9.4-8.5-19.1-11.6-29.2c-1.2,2.1-2.3,4.1-3.5,6.2c2.5-0.4,6.3,4,8.1,5.4c2.7,2.1,5.5,4,8.5,5.6
				c5.8,3.1,11.9,5,18.4,5.5c6.1,0.4,6.1-7.9,1.3-9.8c-9.9-4-19.6-8.3-29.1-13c0,2.9,0,5.8,0,8.6c3.9-2.7,7.9-0.7,11.6,1.3
				c4,2.2,8,4.5,12.2,6.3c8,3.4,16.2,7.3,24.5,9.7c8.4,2.5,18.1-0.3,26.7-0.7c9.2-0.5,18.5-0.6,27.7-1.8c9.4-1.2,17.6-4,26.4-7.5
				c8.3-3.3,17.1-1.3,25.5-4.3c2.2-0.8,4.4-2,6.8-2.1c2-0.1,4,0.5,6,0.5c3.3,0,6.1-1,8.6-3.3c1.6-1.6,2.1-2.5,4.6-2.6
				c2.1-0.1,4.1,0.7,6.1,1.2c4.5,1.2,8.6,2,13.2,0.8c4.6-1.1,5-8.8,0-9.6c-14.3-2.3-28.6-1.8-42.6,1.6c-5.8,1.4-4,9.4,1.3,9.8
				c3.8,0.3,7.6,0.6,11.4,1c2.8,0.2,8.9-0.4,11.4,1.2c-0.8-1-1.5-2-2.3-3c0.1,0.4-6.7,6.5-7.2,7c-2.7,2.6-5.6,5-8.7,7.2
				c2,2.6,4,5.2,6.1,7.9c7.4-7.6,15-15.1,22.8-22.4c-2.6-0.3-5.2-0.7-7.9-1c3.6,7.1-7.8,14.1-12.3,17.8
				c-6.5,5.2-13.1,10.2-20.4,14.2c2.3,2.3,4.6,4.6,6.8,6.8c8.4-13.4,18.9-25.2,31.1-35.2c4.6-3.8-1.2-10.4-6.1-7.9
				c-14.5,7.5-28.5,15.9-42.6,24.2c2.3,2.3,4.6,4.6,6.8,6.8c6.9-11.6,15.2-22,24.9-31.2c-2.4-2.4-4.7-4.7-7.1-7.1
				c-10.1,11.4-21,23-35.5,28.6c2.1,2.1,4.1,4.1,6.2,6.2c2.1-7.5,6.7-13.7,11.5-19.8c3.2-4.1-0.9-11.3-6.1-7.9
				c-15.2,10.4-31.3,19.4-48.2,26.9c2.3,0.6,4.6,1.2,6.8,1.8c-0.5-0.8-0.7-1.6-0.6-2.5c0.1-4.8-5.3-6-8.5-3.5
				c-2.7,2.1-5.7,3.7-8.8,4.8c2.1,1.6,4.2,3.2,6.3,4.8c-0.3-1.2-0.1-2.4,0.5-3.5c1.1-3.1-1.7-6.3-4.8-6.3c-7.9,0-15.8,0.1-23.7,0.1
				c-6.9,0-14.4,0.8-21.2-0.3c-6.4-1-9-6.5-14.3-9.6c-5.6-3.4-13.5-3.4-19.8-4.3c1,0.8,2,1.5,3,2.3c-0.6-1-1.1-2.1-1.7-3.1
				c-2.8-5-10.7-1.6-9.1,3.9c4.2,15,14.3,27.1,25.9,37c12.6,10.8,26.2,17.5,42.7,19.4c17.9,2.1,35.4-1.2,52.3-7
				c16.1-5.5,31.7-12.5,48.6-15.2c-0.9-3.2-1.8-6.4-2.7-9.6c-7.2,1.6-13.4,4.9-19.1,9.6c-6,5-11.2,10.1-18.4,13.5
				c-13.1,6.2-28.5,7-42.6,5c0.7,2.8,1.5,5.6,2.2,8.4c11.4-10.6,29.8-5.2,43.4-10.6c13-5.1,20-17.9,32.1-24.2
				c-1.7-2.9-3.4-5.8-5-8.6c-12,8.8-24.9,18.4-40.2,19.6c1.2,2.8,2.4,5.7,3.5,8.5c7.6-7.4,16-13.8,25.2-19.1
				c7.8-4.5,16.8-7.6,21.7-15.7c3.2-5.2-3.7-9.3-7.9-6.1c-4.5,3.5-9.5,6.4-14.8,8.8c2.4,1.9,4.9,3.8,7.3,5.6
				c1.9-7.4,5.1-14.3,9.5-20.4c0.6-0.9,7.6-8.7,7.7-8.6c-0.7-0.1-1.5-0.1-2.2-0.2c0.7,0.7,1.3,1.6,1.8,2.5c0.5,0.9,0.7,1.8,0.7,2.8
				c-0.8,0.6-1,0.4-0.7-0.6c1.1-4.6-3.4-7.4-7.3-5.6c-3.2,1.4-5.7,3.7-8.3,5.9c-1.2,1-2.6,2.4-4.1,2.9c-2.5,0.8-5.2-0.5-7.7-1.1
				c-9.4-2.5-19.1-2.3-28.5,0.2c0.9,3.2,1.8,6.4,2.7,9.6c15.8-5.4,32-8.3,48.7-8.6c-0.4-3.3-0.9-6.5-1.3-9.8
				c-29.1,11.3-59.4,19.3-90.3,23.9c1.3,3,2.6,6.1,3.9,9.1c2.8-1.8,5.7-2.9,9.1-3.2c6.4-0.4,6.5-9.7,0-10c-20.2-1-40-5-59.2-11.7
				c0,3.2,0,6.4,0,9.6c2.5-0.8,4.2-0.3,6,1.6c0.3-2.6,0.7-5.2,1-7.9c-6.9,3.4-14.2,5.6-21.8,6.8c-4.2,0.6-4.9,7.3-1.2,9.1
				c5.3,2.6,10.6,5.2,15.9,7.8c5,2.5,10-3.6,6.1-7.9c-2.9-3.1-6.2-5.7-9.9-7.8c-5.7-3.2-10.2,5-5,8.6c8.5,6.1,17.2,11.9,26,17.5
				c0.8-3.1,1.7-6.2,2.5-9.3c-7.7-0.6-14.7-3.2-21.1-7.5c-5.4-3.7-10.1,4.9-5,8.6c8.9,6.6,18.1,11.9,28.7,15.2
				c10.2,3.1,22.1,7.1,32.8,5c4.9-0.9,9.5-2.7,14.4-3.5c5.1-0.9,9.8-2.3,14.1-5.1c9.9-6.4,19-14.3,28.3-21.4
				c-2.3-0.6-4.6-1.2-6.8-1.8c3.8,7.1-5.6,13.1-10.6,16.1c-6.7,4.1-13.8,6.8-21.8,5.8c1.2,2.8,2.4,5.7,3.5,8.5
				c9-9,19.1-16.4,30.3-22.3c-2.5-1.4-5-2.9-7.5-4.3c0,1.5-2.1,1.8-3.3,2.1c0.1,0-5.9,1.8-1.6,2.4c-0.3,0,3.2-7.5,3.7-8.2
				c3.1-5.1-3.7-9.6-7.9-6.1c-5.7,4.9-12.7,7.6-20.2,8c1.2,2.8,2.4,5.7,3.5,8.5c12.2-11.3,26.3-20.5,41.7-26.8
				c-1.9-2.4-3.8-4.9-5.6-7.3c-4.5,7.7-11,13.4-19.1,17.1c1.7,2.9,3.4,5.8,5,8.6c2-1.3,4-2.6,6.2-3.6c1.2-0.6,2.5-1.1,3.7-1.6
				c2.3-0.8,4-0.3,2.3-2.7c-1.6-2.3-1.2-1.2-2.8,0.2c-0.8,0.7-1.7,1.4-2.6,1.9c-1.8,1.1-3.7,1.9-5.8,2.5
				c-10.2,2.9-22.1,1.7-32.7,1.9c-10.7,0.2-21.5,0.4-32.2,0.6c-10.5,0.1-21-0.2-31-3.9c-5.5-2-8.4,6.2-3.9,9.1
				c11.4,7.4,22.9,14.7,34.3,22.1c9.9,6.4,19.7,13.4,31.2,16.7c0.9-3.2,1.8-6.4,2.7-9.6c-15.6-2.6-32.5-5.4-44.1-17.1
				c-1.2,2.8-2.4,5.7-3.5,8.5c10.9,1.1,21.8,2.1,32.6,3.2c5,0.5,10.2,1.4,15.3,1.4c2.5,0,4.8-0.5,7.1-1.4c1.9-0.8,4.7-2.9,6.8-2.5
				c0.4-3.3,0.9-6.5,1.3-9.8c-11-0.2-21.5,2.1-31.4,6.7c-3.7,1.7-3,8.6,1.2,9.1c6,0.8,11.9,1.1,18,0.3c6.3-0.7,6.4-10.8,0-10
				c-5.1,0.6-10.2,0.7-15.3,0c0.4,3,0.8,6.1,1.2,9.1c8.3-3.9,17.2-5.5,26.4-5.4c5.5,0.1,7-8.8,1.3-9.8c-5.1-0.9-7.9,1-12.5,2.7
				c-5.4,2-11.9,0.3-17.5-0.3c-11.5-1.1-23-2.2-34.6-3.4c-4.5-0.4-6.4,5.7-3.5,8.5c12.9,13.1,31.1,16.8,48.5,19.7
				c6.2,1,9-7.8,2.7-9.6c-11.2-3.2-20.8-10.6-30.5-16.8c-10.9-7-21.8-14-32.7-21c-1.3,3-2.6,6.1-3.9,9.1c13.5,4.9,28,4.3,42.2,4.1
				c15.3-0.3,30.7-0.2,46-0.9c10.3-0.5,26.3-3.4,30.2-14.9c1.8-5.4-2.3-10-7.8-9.6c-6.2,0.4-13.1,4.5-18.2,7.8
				c-5.4,3.6-0.8,11.3,5,8.6c9.6-4.4,17.4-11.6,22.7-20.7c2-3.4-1.4-9.1-5.6-7.3c-17.1,7.1-32.6,16.8-46.1,29.4
				c-3.1,2.9-0.8,8.7,3.5,8.5c10.3-0.5,19.4-4.2,27.3-10.9c-2.6-2-5.2-4-7.9-6.1c-3.7,6.1-9.5,19.2,1.6,21.2
				c8.1,1.5,18-3.7,18.2-12.5c0.1-3.9-4.3-6-7.5-4.3c-11.9,6.3-22.8,14.3-32.3,23.9c-3.4,3.4-0.5,8,3.5,8.5
				c17.1,2.2,52.6-15.3,41-36.9c-1.2-2.2-4.7-3.4-6.8-1.8c-8.4,6.4-16.6,12.9-25.1,19.2c-3.9,2.9-7.7,5-12.5,6
				c-4.7,0.9-9.2,1.8-13.8,3.2c-9.5,2.7-20.5-1.2-29.7-4c-10.2-3-18.7-8.2-27.2-14.5c-1.7,2.9-3.4,5.8-5,8.6
				c7.9,5.3,16.7,8.2,26.1,8.9c5.2,0.4,6.4-6.8,2.5-9.3c-8.8-5.6-17.5-11.4-26-17.5c-1.7,2.9-3.4,5.8-5,8.6c3,1.7,5.5,3.7,7.9,6.2
				c2-2.6,4-5.2,6.1-7.9c-5.3-2.6-10.6-5.2-15.9-7.8c-0.4,3-0.8,6.1-1.2,9.1c8.5-1.3,16.5-4,24.2-7.8c3-1.5,3-5.6,1-7.9
				c-4-4.4-10-6-15.7-4.2c-4.8,1.6-4.7,8,0,9.6c19.9,7,40.7,11,61.8,12c0-3.3,0-6.7,0-10c-5.1,0.3-9.8,1.7-14.2,4.5
				c-5,3.2-1.6,9.9,3.9,9.1c30.9-4.6,61.1-12.6,90.3-23.9c5-1.9,4.7-9.9-1.3-9.8c-17.5,0.3-34.8,3.3-51.4,8.9
				c-6,2.1-3.6,11.3,2.7,9.6c5.1-1.4,10.3-2,15.6-1.5c5.4,0.4,10.6,3.1,16,3.1c8.4,0.1,12.4-7.4,19.4-10.4c-2.4-1.9-4.9-3.8-7.3-5.6
				c-2,8.2,5.3,16.2,13.8,12.8c9.1-3.6,7.3-14.7,2.1-20.8c-13.2-15.6-30.2,23.2-32.7,32.5c-1.2,4.5,3.5,7.4,7.3,5.6
				c6.1-2.8,11.5-6.2,16.8-10.3c-2.6-2-5.2-4-7.9-6.1c-2.3,3.8-6.2,5.8-10.1,7.8c-4.3,2.2-8.5,4.5-12.5,7
				c-8.2,5.2-15.8,11.3-22.8,18c-3,2.9-0.9,8.9,3.5,8.5c17.4-1.4,31.6-10.9,45.3-20.9c5.1-3.7,0.8-11.6-5-8.6
				c-12.8,6.6-20.2,21.3-34.7,24.7c-14.8,3.6-30.6,0.3-42.8,11.6c-2.5,2.3-1.6,7.8,2.2,8.4c14.9,2.1,30.5,1.9,44.8-3.6
				c6.9-2.7,13.1-6.3,18.7-11.1c7-5.9,12.7-11.4,21.9-13.4c6.4-1.4,3.6-10.6-2.7-9.6c-31.1,5-58.3,23.7-90.5,22.5
				c-16-0.6-29.8-5.7-42.1-16c-10.8-9-20.7-19.8-24.6-33.7c-3,1.3-6.1,2.6-9.1,3.9c2.4,4.3,3.5,5.2,8.2,5.9c3.9,0.6,8.5,0.7,12.2,2
				c3,1.1,4.8,3.7,7.2,5.8c2.6,2.3,5.4,4.1,8.8,5.1c7.1,2.1,15.1,1.2,22.4,1.2c9.2,0,18.4-0.1,27.6-0.1c-1.6-2.1-3.2-4.2-4.8-6.3
				c-0.7,2.1-1,4-0.8,6.2c0.2,3,3.1,6,6.3,4.8c4.9-1.8,9.1-4.2,13.3-7.4c-2.8-1.2-5.7-2.4-8.5-3.5c-0.1,2.8,0.6,5.1,1.9,7.6
				c1.4,2.6,4.4,2.9,6.8,1.8c16.8-7.5,32.9-16.5,48.2-26.9c-2-2.6-4-5.2-6.1-7.9c-5.9,7.4-11.5,14.9-14.1,24.2
				c-0.9,3.4,2.5,7.6,6.2,6.2c16.3-6.3,28.5-18.4,39.9-31.2c4.3-4.8-2.4-11.5-7.1-7.1c-10.3,9.8-19.2,21-26.5,33.2
				c-2.5,4.3,2.5,9.4,6.8,6.8c14-8.3,28.1-16.7,42.6-24.2c-2-2.6-4-5.2-6.1-7.9c-12.8,10.6-23.8,23.2-32.6,37.3
				c-2.7,4.4,2.6,9.2,6.8,6.8c10-5.6,19-12.8,27.7-20.1c7.7-6.5,13.6-15.6,8.6-25.6c-1.5-3-5.6-3.1-7.9-1
				c-7.8,7.3-15.4,14.7-22.8,22.4c-3.8,3.9,1.3,11.3,6.1,7.9c4.4-3.2,8.6-6.7,12.5-10.5c3.3-3.3,8.9-7.9,8.4-13
				c-0.5-5.8-5.9-6.4-10.6-6.8c-6.6-0.6-13.3-1.1-19.9-1.7c0.4,3.3,0.9,6.5,1.3,9.8c12.2-3,24.9-3.6,37.3-1.6c0-3.2,0-6.4,0-9.6
				c-4.6,1.1-9.3-1.6-13.9-2.2c-3.6-0.5-7.3-0.2-10.5,1.7c-1.5,0.9-2.5,2.8-3.9,3.5c-1.8,1-4.1,0-6,0c-4-0.2-7.3,1.1-11,2.4
				c-4.7,1.7-9,1.4-13.9,1.7c-4.7,0.3-9,1.5-13.3,3.3c-8.9,3.7-17.5,6.1-27.1,7c-9.3,0.9-18.7,0.9-28,1.6c-4.8,0.3-9.8,1.6-14.6,1.5
				c-4.6-0.1-9.1-2.6-13.3-4.3c-8.7-3.4-17-6.9-25.1-11.5c-6.8-3.7-14.8-6.1-21.7-1.3c-2.8,2-3.6,6.9,0,8.6
				c10.3,5.1,20.8,9.7,31.5,14c0.4-3.3,0.9-6.5,1.3-9.8c-7.7-0.5-14.5-4.2-20.5-8.7c-5.6-4.1-9.8-8.6-17.2-7.4
				c-2.6,0.4-4.2,3.8-3.5,6.2c3,9.6,6.6,19.1,11,28.2c3.8,8.1,7.8,15.9,15.4,21.1c7.9,5.4,17.1,9.4,25.7,13.4
				c8.9,4.1,18,7.8,27.5,10.1c20,4.9,39.1,1.7,58.7-3.3c9.3-2.4,18.2-5.1,26.5-10.1c8.1-4.9,15.7-10.7,22.8-17
				c7.4-6.6,14.1-13.9,20.1-21.7c5.8-7.5,13.6-16.7,12.8-26.8C481.3,310.7,471.3,310.7,471.8,317.1L471.8,317.1z"/>
		</g>
	</g>
	<g id="XMLID_325_">
		<g id="XMLID_523_">
			<path id="XMLID_527_" class="st2" d="M350.6,365.1c6.1,0,12.2,0,18.3,0c2.9,0,5.8,0,8.7,0c2.5,0,6.6-0.9,8.8,0
				c-1-0.8-2-1.5-3-2.3c0.1,0.1,0.2,0.3,0.3,0.4c0.3-2,0.5-4,0.8-6.1c-0.1,0.1-0.1,0.1-0.2,0.2c-4.4,4.7,2.6,11.8,7.1,7.1
				c0.1-0.1,0.1-0.1,0.2-0.2c1.4-1.5,2.1-4.3,0.8-6.1c-3.8-5.1-12.1-3.1-17.7-3.1c-8,0-16,0-24,0
				C344.1,355.1,344.1,365.1,350.6,365.1L350.6,365.1z"/>
		</g>
	</g>
	<g id="XMLID_352_">
		<g id="XMLID_517_">
			<path id="XMLID_521_" class="st2" d="M385.6,357c-21.5,3.9-43.4,2.4-64.3-3.9c-0.9,3.2-1.8,6.4-2.7,9.6
				c28.2,4.4,56.6,6.1,85.1,4.7c6.4-0.3,6.4-10.3,0-10c-27.6,1.3-55.2-0.1-82.4-4.3c-6.2-1-9,7.7-2.7,9.6
				c22.6,6.9,46.4,8.1,69.6,3.9C394.6,365.5,391.9,355.8,385.6,357L385.6,357z"/>
		</g>
	</g>
	<g id="XMLID_359_">
		<g id="XMLID_511_">
			<path id="XMLID_515_" class="st2" d="M254.6,317.8c-8.5,12.7-15.1,25.5-18.9,40.4c-3.5,14-7.6,29.2-6.5,43.8
				c1,14.5,8.6,26.2,16,38.3c7.8,12.7,16,25.2,25.5,36.7c2.1,2.6,6.3,1.5,7.9-1c2.6-4.2,5.3-8.4,7.9-12.5c2-3.2,4.3-8.6,8.1-10.1
				c2.8-1.1,3.9-3.2,3.5-6.2c-1-6.9,3.8-13.1,2.8-19.8c-0.9-5.8-5-10.2-9.1-14.1c-3.3-3.2-8.1-0.7-8.5,3.5c-0.2,1.7,0.4,4.6-0.3,6
				c-1.1,2.2-5.8,3.8-7.9,4.5c-3.8,1.4-10.6,4.3-13.8,0.5c-1.6,2.8-3.2,5.6-4.9,8.4c4.4,1.4,8.9,2.1,13.2,3.5
				c0.4-3.3,0.9-6.5,1.3-9.8c-9.1,0-14.7-7.6-18.1-15.3c-4.1-9.5-3.6-19.4-2-29.4c3.3-20.8,6.7-41.5,11.3-62
				c-3.3-0.4-6.5-0.9-9.8-1.3c0.3,7.8,0.6,15.7-2.5,23.1c-2.8,6.6-6.7,12.6-9.5,19.2c-5.6,13.1-8.7,27.3-8.9,41.6
				c-0.1,6.3,0.5,12.3,4.1,17.7c3.7,5.6,8.4,10.8,13.1,15.6c4.2,4.2,11.1,8,13.4,13.6c2.7,6.6,4.7,12,10.3,16.8
				c2.2,1.9,6.4,2.1,7.9-1c5.1-11.4,9.9-23,14.2-34.8c1.9-5.2-4.9-7.7-8.4-4.9c-7.4,6-13.4,13.6-17.5,22.2c-2.8,5.7,5.7,10.8,8.6,5
				c3-5.8,5.1-11.8,6.3-18.2c0.7-3.9-3.4-8.3-7.3-5.6c-4.4,3-9,5.2-14.1,6.6c-6.2,1.7-3.6,11.4,2.7,9.6c5.9-1.6,11.4-4.1,16.5-7.6
				c-2.4-1.9-4.9-3.8-7.3-5.6c-1,5.5-2.7,10.8-5.3,15.8c2.9,1.7,5.8,3.4,8.6,5c3.8-8,9.1-14.6,16-20.2c-2.8-1.6-5.6-3.2-8.4-4.9
				c-4,10.9-8.4,21.7-13.2,32.4c2.6-0.3,5.2-0.7,7.9-1c-2.6-2.2-4.7-4.7-6.2-7.7c-1.2-2.5-1.6-5.3-2.9-7.8c-2.6-5.2-8-8.5-12.2-12.3
				c-5-4.6-9.8-9.7-13.6-15.3c-3.9-5.6-3.4-12.1-2.9-18.6c1-13.9,4.9-27.6,11.4-39.9c3-5.7,6.4-11.2,8-17.5c1.8-7,1.6-14.2,1.3-21.3
				c-0.2-5.4-8.5-7-9.8-1.3c-2.9,12.6-5.3,25.4-7.4,38.1c-2,11.9-4.6,23.9-5.4,36c-1.2,18.9,9.1,45.2,31.3,45.3
				c5.8,0,6.6-8.1,1.3-9.8c-4.4-1.4-8.9-2.1-13.2-3.5c-5.1-1.7-7.9,4.8-4.9,8.4c6.3,7.4,17.4,4.5,25.1,1.4c4.2-1.7,9.1-3.9,11.8-7.6
				c2.6-3.6,1.8-7.8,2.2-12c-2.8,1.2-5.7,2.4-8.5,3.5c1.8,1.7,3.8,3.5,5.1,5.7c1.6,2.8,1,4.6,0.2,7.5c-1.5,5.5-2.5,10.6-1.6,16.3
				c1.2-2.1,2.3-4.1,3.5-6.2c-5,2-8.1,5.4-11,9.9c-3.7,5.7-7.3,11.6-11,17.4c2.6-0.3,5.2-0.7,7.9-1c-8.6-10.4-16-21.7-23-33.1
				c-7-11.4-15.1-22.7-15.7-36.6c-0.5-13.5,3.2-27.3,6.5-40.2c3.5-13.8,9.8-25.3,17.6-37.1C266.8,317.5,258.2,312.5,254.6,317.8
				L254.6,317.8z"/>
		</g>
	</g>
	<g id="XMLID_366_">
		<g id="XMLID_505_">
			<path id="XMLID_509_" class="st2" d="M272.8,449.1c0-0.1-0.1-0.2-0.1-0.4c0.1,0.4,0.1,0.9,0.2,1.3c0-0.3,0-0.5,0-0.8
				c-0.1,0.4-0.1,0.9-0.2,1.3c0-0.3,0.1-0.5,0.2-0.7c-0.2,0.4-0.3,0.8-0.5,1.2c0.1-0.2,0.2-0.5,0.4-0.7c-0.3,0.3-0.5,0.7-0.8,1
				c0.2-0.3,0.4-0.5,0.7-0.7c-0.3,0.3-0.7,0.5-1,0.8c0.2-0.1,0.4-0.3,0.7-0.4c-0.4,0.2-0.8,0.3-1.2,0.5c0.2-0.1,0.4-0.1,0.5-0.1
				c-0.4,0.1-0.9,0.1-1.3,0.2c0.1,0,0.3,0,0.4,0c2.6-0.1,5.1-2.3,5-5c-0.1-2.7-2.2-5.1-5-5c-5,0.1-9,5.1-7.6,10.1
				c0.7,2.5,3.5,4.3,6.2,3.5C271.9,454.4,273.6,451.8,272.8,449.1L272.8,449.1z"/>
		</g>
	</g>
	<g id="XMLID_373_">
		<g id="XMLID_499_">
			<path id="XMLID_503_" class="st2" d="M312,381.8c0.1,8.2-3.2,16.7-5.2,24.6c-1.6,6.2,8.1,8.9,9.6,2.7c2.2-8.8,5.7-18.1,5.5-27.2
				C321.9,375.4,311.9,375.4,312,381.8L312,381.8z"/>
		</g>
	</g>
	<g id="XMLID_380_">
		<g id="XMLID_493_">
			<path id="XMLID_497_" class="st2" d="M321.2,403.8c0.6-3.7,1.8-7.2,3.6-10.5c3.1-5.6-5.5-10.7-8.6-5c-2.2,4-3.8,8.3-4.6,12.9
				c-0.5,2.7,0.7,5.4,3.5,6.2C317.5,408,320.8,406.5,321.2,403.8L321.2,403.8z"/>
		</g>
	</g>
	<g id="XMLID_387_">
		<g id="XMLID_487_">
			<path id="XMLID_491_" class="st2" d="M326,399.7c2.7-0.5,5.6,0,7.9,1.5c0.8,0.5,1.7,1.2,2,1.9c0.6,1.7,0,4.5,0,6.3
				c3.3-0.4,6.5-0.9,9.8-1.3c-1.6-5.4-2.5-13.2-7.1-16.9c-2.1-1.7-5-2-7.1,0c-1.8,1.7-2.1,5.4,0,7.1c1.5,1.2,1.7,3,2.2,4.7
				c0.8,2.6,1.6,5.2,2.3,7.8c1.6,5.3,9.9,4.4,9.8-1.3c0-3,0.4-6.5-0.4-9.5c-0.8-2.9-3.3-5.2-5.8-6.8c-4.9-3.3-10.8-4.1-16.5-3
				C317,391.2,319.7,400.9,326,399.7L326,399.7z"/>
		</g>
	</g>
	<g id="XMLID_394_">
		<g id="XMLID_481_">
			<path id="XMLID_485_" class="st2" d="M268.1,350c-4.5,7.9-10.3,15.8-13.4,24.3c-2.2,6.1,7.5,8.7,9.6,2.7c1.5-4,4.2-7.8,6.3-11.5
				c2-3.5,4-7,6-10.4C280,349.5,271.3,344.4,268.1,350L268.1,350z"/>
		</g>
	</g>
	<g id="XMLID_401_">
		<g id="XMLID_475_">
			<path id="XMLID_479_" class="st2" d="M277.4,354.8c-2.5,2.7-4.8,5.8-6.4,9.1c-1.2,2.3-0.7,5.5,1.8,6.8c2.3,1.2,5.6,0.7,6.8-1.8
				c0.7-1.4,1.5-2.7,2.4-4c0.2-0.3,0.4-0.6,0.6-0.9c0.5-0.7-0.3,0.4,0.2-0.3c0.5-0.6,1.1-1.3,1.6-1.9c1.8-2,2-5.1,0-7.1
				C282.6,352.9,279.3,352.8,277.4,354.8L277.4,354.8z"/>
		</g>
	</g>
	<g id="XMLID_402_">
		<g id="XMLID_468_">
			<path id="XMLID_473_" class="st2" d="M281.9,360.4c-3.2,3.9-5.9,8-8.1,12.5c-1.2,2.4-0.7,5.4,1.8,6.8c2.2,1.3,5.7,0.6,6.8-1.8
				c1.8-3.7,3.9-7.2,6.5-10.4c1.7-2.1,2-5,0-7.1C287.2,358.6,283.6,358.3,281.9,360.4L281.9,360.4z"/>
		</g>
	</g>
	<g id="XMLID_415_">
		<g id="XMLID_461_">
			<path id="XMLID_466_" class="st2" d="M274,357.5c-2.6,4.8-6.4,8.1-11.4,10.3c-2.5,1.1-3,4.7-1.8,6.8c1.5,2.6,4.3,2.9,6.8,1.8
				c6.4-2.7,11.7-7.7,15-13.9C285.6,356.8,277,351.8,274,357.5L274,357.5z"/>
		</g>
	</g>
	<g id="XMLID_417_">
		<g id="XMLID_454_">
			<path id="XMLID_459_" class="st2" d="M288.2,365c-4.1,6.1-8.5,11.9-13.3,17.6c-4.1,4.9,2.9,12,7.1,7.1
				c5.3-6.3,10.2-12.8,14.8-19.6C300.5,364.7,291.8,359.7,288.2,365L288.2,365z"/>
		</g>
	</g>
	<g id="XMLID_429_">
		<g id="XMLID_447_">
			<path id="XMLID_452_" class="st2" d="M288.9,375.5c-0.9,2.7-3.7,4.9-5.7,6.8c-2.6,2.5-5.2,4.9-7.9,7.3c-4.9,4.2,2.2,11.3,7.1,7.1
				c5.9-5.1,13.6-10.9,16.2-18.5C300.6,372.1,290.9,369.5,288.9,375.5L288.9,375.5z"/>
		</g>
	</g>
	<g id="XMLID_436_">
		<g id="XMLID_440_">
			<path id="XMLID_445_" class="st2" d="M295.2,380.8c0.3,0.8,0.1-0.5,0.1-0.8c0.1-0.8-0.2,0.3,0.1-0.3c0.5-0.8-0.2,0.3-0.2,0.3
				c0.1-0.2,0.2-0.3,0.4-0.5c-0.3,0.3-0.3,0.3,0,0c0.6-0.4-0.1,0-0.2,0.1c-0.7,0.4-0.4,0,0.1,0c-0.5,0-1.2,0.4-1.7,0.6
				c-2.5,0.8-4.3,3.5-3.5,6.2c0.8,2.5,3.5,4.3,6.2,3.5c2.3-0.7,4.6-1.6,6.3-3.4c2-2.1,3.1-5.4,2.1-8.3c-0.8-2.5-3.5-4.4-6.2-3.5
				C296.2,375.5,294.3,378.2,295.2,380.8L295.2,380.8z"/>
		</g>
	</g>
	<g id="XMLID_443_">
		<g id="XMLID_433_">
			<path id="XMLID_438_" class="st2" d="M299.2,385.8c0.8,3.4,3.4,5.5,5.1,8.5c1.8,3.1,2.8,6.4,3,10c0.4,6.4,9.9,6.5,10,0
				c0-0.4,0-0.7,0-1.1c0.1-6.4-9.9-6.4-10,0c0,0.4,0,0.7,0,1.1c3.3,0,6.7,0,10,0c-0.3-4.1-1.1-7.9-2.7-11.6c-0.8-1.7-1.6-3.4-2.7-5
				c-1-1.4-2.7-2.8-3.1-4.5C307.4,376.8,297.7,379.5,299.2,385.8L299.2,385.8z"/>
		</g>
	</g>
	<g id="XMLID_450_">
		<g id="XMLID_426_">
			<path id="XMLID_431_" class="st2" d="M335.7,404.9c6.4,0,6.4-10,0-10C329.2,394.9,329.2,404.9,335.7,404.9L335.7,404.9z"/>
		</g>
	</g>
	<g id="XMLID_457_">
		<g id="XMLID_420_">
			<path id="XMLID_424_" class="st2" d="M336.9,411.3c0,2,0,4,0,6c0,3.2,4.8,3.2,5,0c0.3-6.1,4.6-12.5,7.8-17.6
				c-1.6-0.4-3.1-0.8-4.7-1.3c-0.3,2.8-1.4,5.4-3.2,7.6c1.4,0.8,2.8,1.6,4.2,2.4c1.1-4.2,3-7.9,5.6-11.3c-1.5-0.2-3-0.4-4.6-0.6
				c-0.2,0.7-0.3,1.3-0.5,2c1.4,0.4,2.8,0.7,4.2,1.1c-0.9-2.7-2.6-4.5-5.4-5c-3.1-0.6-4.5,4.2-1.3,4.8c0.6,0.5,1.3,1,1.9,1.5
				c0.5,1.7,2.9,2.6,4.2,1.1c1.8-2.1,2.4-4.1,1.7-6.9c-0.5-2.3-3.4-2.2-4.6-0.6c-2.9,3.8-4.9,7.9-6.1,12.5c-0.6,2.2,2.6,4.5,4.2,2.4
				c2.7-3.4,4.1-6.9,4.6-11.1c0.3-2.6-3.5-3.2-4.7-1.3c-3.7,5.9-8.1,13-8.5,20.1c1.7,0,3.3,0,5,0c0-2,0-4,0-6
				C341.9,408,336.9,408,336.9,411.3L336.9,411.3z"/>
		</g>
	</g>
	<g id="XMLID_464_">
		<g id="XMLID_412_">
			<path id="XMLID_418_" class="st2" d="M263.4,420.9c-3.3-3.2-5-6.5-9.4-8.4c-1.7-0.7-4.6,0.5-3.7,2.8c1.1,2.7,1.9,5.5,2.5,8.3
				c1.4-0.8,2.8-1.6,4.2-2.4c-1.9-2.4-4.6-5.3-5.3-8.3c-0.8-3.3-0.8-9.2,2.5-11c-1.3-0.7-2.5-1.4-3.8-2.2c-0.4,4.7-2,10.9-1,15.5
				c0.2,0.8,0.9,1.6,1.7,1.7c6.8,1,13.9-5.4,17.2-10.7c1.3-2.1-1.3-4.8-3.4-3.4c-3.8,2.6-7,5.8-10,9.2c-1.6,1.8-0.1,5,2.4,4.2
				c0.3-0.1,0.6-0.2,1-0.3c3-1,1.7-5.8-1.3-4.8c-0.3,0.1-0.6,0.2-1,0.3c0.8,1.4,1.6,2.8,2.4,4.2c2.8-3.1,5.6-6.1,9-8.4
				c-1.1-1.1-2.3-2.3-3.4-3.4c-1.9,3-7.3,9-11.5,8.4c0.6,0.6,1.2,1.2,1.7,1.7c-0.4-2,0.4-5,0.6-7c0.2-2.4,0.4-4.8,0.6-7.2
				c0.2-2-2.2-3-3.8-2.2c-4.9,2.7-5.5,8-5.2,13.2c0.3,5.7,3.6,9.7,7,14c1.7,2.1,4.6-0.2,4.2-2.4c-0.6-2.9-1.4-5.6-2.5-8.3
				c-1.2,0.9-2.4,1.9-3.7,2.8c4,1.7,5.5,4.8,8.4,7.6C262.1,426.7,265.7,423.2,263.4,420.9L263.4,420.9z"/>
		</g>
	</g>
	<g id="XMLID_471_">
		<g id="XMLID_406_">
			<path id="XMLID_410_" class="st2" d="M262.9,402.8c0.2,1.6,0.1,3.2-0.2,4.8c-0.4,3.1,4.4,4.5,4.8,1.3c0.3-2.1,0.7-4.2,1.2-6.3
				c-1.6-0.2-3.3-0.4-4.9-0.7c-0.3,8.1-0.8,16.2-1.5,24.3c1.6-0.2,3.3-0.4,4.9-0.7c-0.6-4.2-0.9-8.3-1-12.5
				c-0.1-2.2-2.7-3.3-4.3-1.8c-3.1,2.9-5.2,6.2-6.6,10.2c1.6,0.4,3.2,0.9,4.8,1.3c0.4-1.7,0.8-3.2,1.4-4.8c-1.6,0-3.2,0-4.8,0
				c0.7,3,1.4,8.3,4,10.4c2.5,1.9,6.6,0.3,9.3-0.2c2-0.4,2.2-2.9,1.1-4.2c-1.4-1.6-2.7-3.2-4.1-4.9c-1.2,1.2-2.4,2.4-3.5,3.5
				c5.2,4.5,9.1,3.6,14.9,0.6c5.3-2.7,9.6-6.7,11.3-12.5c0.9-3.1-3.9-4.4-4.8-1.3c-1.7,5.9-12.1,14.8-17.9,9.7
				c-2.4-2.1-5.6,1.1-3.5,3.5c1.4,1.6,2.7,3.2,4.1,4.9c0.4-1.4,0.7-2.8,1.1-4.2c-2.4,0.4-4.2,1.2-5.6-1c-1-1.5-1.2-3.9-1.6-5.6
				c-0.6-2.6-4-2.1-4.8,0c-0.6,1.6-1.1,3.1-1.4,4.8c-0.7,3.2,3.7,4.4,4.8,1.3c1.1-3.2,2.8-5.7,5.3-8c-1.4-0.6-2.8-1.2-4.3-1.8
				c0.2,4.6,0.6,9.2,1.2,13.8c0.4,3,4.7,1.9,4.9-0.7c0.6-8.1,1.1-16.2,1.5-24.3c0.1-2.8-4.2-3.4-4.9-0.7c-0.5,2.1-0.9,4.1-1.2,6.3
				c1.6,0.4,3.2,0.9,4.8,1.3c0.3-2.1,0.4-4,0.3-6.1C267.8,399.6,262.8,399.6,262.9,402.8L262.9,402.8z"/>
		</g>
	</g>
	<g id="XMLID_21_">
		<g id="XMLID_263_">
			<path id="XMLID_267_" class="st2" d="M318.1,291.4c-2.8,5.2-4.9,10.6-6.4,16.2c-0.8,3.2,3.6,4.2,4.8,1.3
				c4.3-10.7,7.8-21.6,10.5-32.8c0.6-2.7-3.2-4.5-4.6-1.9c-5.1,9.8-10.1,19.6-15.2,29.4c1.6,0.4,3.1,0.8,4.7,1.3
				c-0.1-3.2,0.6-5.7,2.3-8.4c-1.5-0.6-3-1.3-4.6-1.9c-1,4.7-2.4,9.2-4.1,13.7c1.6,0.2,3.3,0.4,4.9,0.7c-0.3-2.8-2-4.3-4.9-3.6
				c1,0.6,2.1,1.2,3.1,1.7c-0.7-1.5-0.3-2.7,1.1-3.7c-1.4-0.6-2.8-1.2-4.3-1.8c0,2.7-0.1,5.5-0.1,8.2c1.4-0.6,2.8-1.2,4.3-1.8
				c-2.3-2.6-4.5-5.1-6.8-7.7c-1.8-2.1-5.6,0.7-3.9,3c2.1,2.8,4.3,5.2,6.9,7.4c1.9,1.6,4.8,0.1,4.2-2.4c-0.2-0.9-0.5-1.9-0.7-2.8
				c-1.6,0.4-3.2,0.9-4.8,1.3c1,3.9,2.8,7.1,5.5,10c2.2,2.4,5.6-1.1,3.5-3.5c-1.4-1.7-2.1-3.3-2.5-5.4c-0.5-2.6-4.1-2.2-4.8,0
				c-0.7,2,0.1,3.8,2,4.7c2.4,1,4.4-0.6,5.7-2.5c5.2-7.6,8.6-17.1,11.9-25.7c-1.6-0.2-3.3-0.4-4.9-0.7c0.6,8.5-2.9,16.5-9.7,21.7
				c1.1,1.1,2.3,2.3,3.4,3.4c11.4-17.1,25.1-43.1,6.2-60.5c-1.2-1.2-3.9-0.9-4.2,1.1c-1,6,0.5,11.5,2.5,17.1
				c2.2,6.1,5.6,13.2,2.8,19.6c1.6,0.4,3.1,0.8,4.7,1.3c-0.3-10.7,1.8-25.4-6.8-33.6c-1.7-1.6-4-0.3-4.3,1.8
				c-1,8.3,0.5,16.3,4.2,23.8c1.3,2.7,5,0.7,4.6-1.9c-2.1-13.2-7.7-25.3-16-35.7c-1.7-2.2-4.5,0.3-4.2,2.4
				c1.5,8.6,4.6,16.6,9.2,23.9c1.6,2.4,5.1,0.8,4.6-1.9c-1.3-6.8-3.3-13.3-5.9-19.7c-1.5,0.6-3,1.3-4.6,1.9c1.7,3.1,3.1,6.3,4.2,9.7
				c0.8-1.1,1.6-2.1,2.4-3.2c-3.7,0-6.5,1.6-8.4,4.7c1.4,0,2.9,0,4.3,0c-1.3-2.7-2.8-4.8-4.9-6.9c-1.2-1.2-3.1-0.9-3.9,0.5
				c-0.6,0.9-1.2,1.9-1.8,2.8c1.6,0.4,3.1,0.8,4.7,1.3c-0.3-2.8-0.7-5.3-1.6-7.9c-0.6-1.8-3.6-2.7-4.6-0.6c-1.5,3.6-3.7,6-7.2,7.8
				c1,1.3,2,2.6,3,3.9c1.6-1.3,3.2-2.5,4.8-3.8c-1.2-1.2-2.4-2.4-3.5-3.5c-6.7,8.6-13.3,17.1-20,25.7c-1.9,2.5,1.6,6.1,3.5,3.5
				c2.5-3.2,5-6.4,7.5-9.7c1.9-2.5-1.5-6.1-3.5-3.5c-5.1,6.3-10.3,12.6-15.4,18.9c1.4,0.8,2.8,1.6,4.2,2.4
				c3.2-7.9,8.1-14.6,14.5-20.2c-1.3-1-2.6-2-3.9-3c-5.5,9.7-11,19.3-16.5,29c1.4,0.8,2.9,1.7,4.3,2.5c2.6-5.3,5.7-10.2,9.5-14.7
				c-1.3-1-2.6-2-3.9-3c-2,4.6-4.1,9.2-6.1,13.8c1.5,0.6,3,1.3,4.6,1.9c2.2-11.9,5.3-27,18.8-30.7c3.1-0.8,1.8-5.7-1.3-4.8
				c-15.4,4.1-19.8,20.3-22.3,34.1c-0.5,2.6,3.3,4.7,4.6,1.9c2-4.6,4.1-9.2,6.1-13.8c1-2.4-2-5.4-3.9-3c-4,4.9-7.5,10.1-10.3,15.8
				c-1.4,2.9,2.7,5.3,4.3,2.5c5.5-9.7,11-19.3,16.5-29c1.4-2.5-1.8-4.9-3.9-3c-7.1,6.2-12.3,13.7-15.8,22.4
				c-0.9,2.3,2.6,4.3,4.2,2.4c5.1-6.3,10.3-12.6,15.4-18.9c-1.2-1.2-2.4-2.4-3.5-3.5c-2.5,3.2-5,6.4-7.5,9.7
				c1.2,1.2,2.4,2.4,3.5,3.5c6.7-8.6,13.3-17.1,20-25.7c2-2.5-1-5.6-3.5-3.5c-1.6,1.3-3.2,2.5-4.8,3.8c-2.3,1.9,0.6,5.2,3,3.9
				c4.1-2.1,7.1-5.3,9-9.5c-1.5-0.2-3-0.4-4.6-0.6c0.8,2.3,1.2,4.2,1.5,6.6c0.2,2.4,3.3,3.5,4.7,1.3c0.6-0.9,1.2-1.9,1.8-2.8
				c-1.3,0.2-2.6,0.3-3.9,0.5c1.8,1.8,3.1,3.6,4.2,5.9c0.8,1.8,3.4,1.5,4.3,0c0.9-1.7,2.2-2.4,4.1-2.2c1.6,0,2.9-1.6,2.4-3.2
				c-1.2-3.8-2.7-7.4-4.7-10.9c-1.3-2.4-5.7-0.7-4.6,1.9c2.6,6.4,4.6,12.9,5.9,19.7c1.5-0.6,3-1.3,4.6-1.9c-4.5-7-7.3-14.5-8.7-22.7
				c-1.4,0.8-2.8,1.6-4.2,2.4c7.8,9.7,12.8,21.2,14.8,33.5c1.5-0.6,3-1.3,4.6-1.9c-3.3-6.8-4.3-13.9-3.5-21.3
				c-1.4,0.6-2.8,1.2-4.3,1.8c7.2,6.8,5.1,21,5.3,30c0.1,2.3,3.6,3.7,4.7,1.3c5.9-13.4-6.9-24.7-4.7-38c-1.4,0.4-2.8,0.7-4.2,1.1
				c17,15.7,3,39.4-7,54.4c-1.3,2,1.4,4.9,3.4,3.4c8.3-6.2,12.9-15.6,12.2-26c-0.2-2.9-3.9-3.3-4.9-0.7c-1.7,4.6-3.6,9.1-5.7,13.6
				c-0.9,1.9-1.8,3.8-2.8,5.7c-0.6,1.1-1.1,2.1-1.7,3.2c-1.3,1.2-1.2,2.5,0.3,3.7c-1.6,0-3.2,0-4.8,0c0.6,3,1.8,5.3,3.8,7.6
				c1.2-1.2,2.4-2.4,3.5-3.5c-2.2-2.3-3.5-4.7-4.3-7.8c-0.8-3.1-5.6-1.8-4.8,1.3c0.2,0.9,0.5,1.9,0.7,2.8c1.4-0.8,2.8-1.6,4.2-2.4
				c-2.3-1.9-4.3-4-6.1-6.4c-1.3,1-2.6,2-3.9,3c2.3,2.6,4.5,5.1,6.8,7.7c1.5,1.7,4.2,0.3,4.3-1.8c0-2.7,0.1-5.5,0.1-8.2
				c0-2.3-2.7-3.1-4.3-1.8c-2.6,2.2-3.4,5.3-2.3,8.5c0.4,1.3,1.7,2.1,3.1,1.7c-0.1,0-0.2,0-0.3,0.1c-0.4-0.7-0.8-1.4-1.2-2.2
				c0,0.3,0.1,0.6,0.1,0.9c0.3,2.8,3.9,3.4,4.9,0.7c1.7-4.5,3.1-9,4.1-13.7c0.6-2.8-3-4.4-4.6-1.9c-2.1,3.4-3.1,6.9-3,10.9
				c0.1,2.4,3.5,3.6,4.7,1.3c5.1-9.8,10.1-19.6,15.2-29.4c-1.5-0.6-3-1.3-4.6-1.9c-2.7,11.2-6.2,22.1-10.5,32.8
				c1.6,0.4,3.2,0.9,4.8,1.3c1.4-5.3,3.3-10.3,5.9-15.1C323.9,291.1,319.6,288.6,318.1,291.4L318.1,291.4z"/>
		</g>
	</g>
	<g id="XMLID_153_">
		<g id="XMLID_284_">
			<path id="XMLID_341_" class="st2" d="M291.3,440.6c0,8.1,0.1,16.2,0.1,24.3c0,5.7,8.2,6.7,9.8,1.3c3.5-11.3,3.5-23.2,0-34.5
				c-1.9-6.1-11.2-3.6-9.6,2.7c1.7,6.7,3,13.5,4,20.4c0.8,5.8,9.6,4,9.8-1.3c0.4-8.6-0.5-17.1-2.4-25.4c-3.2,0.9-6.4,1.8-9.6,2.7
				c1.7,5.8,2.6,11.7,2.9,17.8c0.3,6.4,10,6.5,10,0c0-4.3,0-8.7-0.1-13c-3.3,0-6.7,0-10,0c1.2,12.8,1.6,25.7,1.1,38.6
				c-0.3,6.4,9.7,6.4,10,0c0.5-12.9,0.2-25.7-1.1-38.6c-0.6-6.3-10-6.6-10,0c0,4.3,0,8.7,0.1,13c3.3,0,6.7,0,10,0
				c-0.3-6.9-1.3-13.7-3.2-20.4c-1.8-6.2-11.1-3.6-9.6,2.7c1.8,7.5,2.4,15,2.1,22.8c3.3-0.4,6.5-0.9,9.8-1.3c-1-6.9-2.3-13.7-4-20.4
				c-3.2,0.9-6.4,1.8-9.6,2.7c3,9.7,3,19.4,0,29.1c3.3,0.4,6.5,0.9,9.8,1.3c0-8.1-0.1-16.2-0.1-24.3
				C301.3,434.2,291.3,434.2,291.3,440.6L291.3,440.6z"/>
		</g>
	</g>
	<g id="XMLID_154_">
		<g id="XMLID_344_">
			<path id="XMLID_348_" class="st2" d="M293.4,432.3c-1.5,15.6,2,31.1,9.8,44.7c3,5.2,10,1.5,9.1-3.9c-1.7-10.6-3.4-21.3-5-31.9
				c-0.9-5.5-10.3-4.3-9.8,1.3c1.8,18.7,4.5,37.2,8.4,55.5c0.8,3.6,5.9,4.9,8.4,2.2c5.2-5.8,3.3-12.8,1.5-19.6
				c-2.4-9.6-4.8-19.2-7.3-28.8c-1.3-5.3-10.4-4.4-9.8,1.3c1.3,12.1,3.2,24,5.9,35.9c1.4,6.3,11.1,3.6,9.6-2.7
				c-2.5-11-4.4-22-5.5-33.2c-3.3,0.4-6.5,0.9-9.8,1.3c1.8,7,3.5,14.1,5.3,21.1c0.8,3.2,1.6,6.4,2.4,9.6c0.5,2,2.2,6.1,0.6,7.9
				c2.8,0.7,5.6,1.5,8.4,2.2c-3.7-17.5-6.4-35.1-8-52.9c-3.3,0.4-6.5,0.9-9.8,1.3c1.7,10.6,3.4,21.3,5,31.9c3-1.3,6.1-2.6,9.1-3.9
				c-7-12.2-9.8-25.7-8.4-39.7C304,425.9,294,425.9,293.4,432.3L293.4,432.3z"/>
		</g>
	</g>
	<g id="XMLID_123_">
		<g id="XMLID_356_">
			<path id="XMLID_361_" class="st2" d="M312.2,495c-4.5-0.8-8.1,0.8-12.5,1.5c-4.5,0.8-9,0.1-13.4,1.2c1,0.6,2.1,1.2,3.1,1.7
				c-0.9-3.3-1.8-6.6-2.7-9.9c-0.6-2.2-2.4-6.2-1.8-8c1.7-5.4,8.4-9.1,12.8-12.3c-1.1-1.1-2.3-2.3-3.4-3.4c-2.8,4.4-5.7,8.6-9,12.7
				c-2.2,2.7-4.1,4.7-4.3,8.3c-0.1,2.1,2.9,3.4,4.3,1.8c4.1-4.8,8.3-9.6,13.7-13.1c-1.1-1.1-2.3-2.3-3.4-3.4
				c-2.8,4.3-5.6,8.6-8.4,12.9c-1.4,2.1,1.3,4.6,3.4,3.4c3.8-2.2,7.4-4.8,10.9-7.4c-1-1.3-2-2.6-3-3.9c-3.8,3.7-7.4,7.5-10.8,11.5
				c-1.5,1.7-0.1,5.2,2.4,4.2c5-2,9.6-4.7,14.3-7.5c-1.2-0.9-2.4-1.9-3.7-2.8c-1.3,3.7-5.5,6.7-8.2,9.5c-2.1,2.1,0.5,5.1,3,3.9
				c3.2-1.6,6.4-3.1,9.6-4.7c-1-1.3-2-2.6-3-3.9c-1.9,1.7-3.8,3.3-5.8,4.8c-2.1,1.5-1,5.5,1.9,4.6c2.8-0.9,5.7-1.8,8.5-2.7
				c-0.6-1.5-1.3-3-1.9-4.6c-4.5,2.3-9.2,3.9-14.2,5c1.1,0.8,2.1,1.6,3.2,2.4c-0.1-1.9-0.3-3.6-0.8-5.5c-0.7-2.6-5.2-2.2-4.9,0.7
				c-0.1,0.5-0.2,1-0.3,1.5c0.8-0.2,1.6-0.4,2.4-0.6c-0.4-0.1-0.7-0.1-1.1-0.2c-3.1-0.5-4.5,4.3-1.3,4.8c3.7,0.6,5.7-1.7,5.3-5.5
				c-1.6,0.2-3.3,0.4-4.9,0.7c0.5,1.3,0.7,2.7,0.6,4.1c0.1,1.7,1.5,2.8,3.2,2.4c5.4-1.2,10.4-3,15.4-5.5c2.5-1.3,0.8-5.4-1.9-4.6
				c-2.8,0.9-5.7,1.8-8.5,2.7c0.6,1.5,1.3,3,1.9,4.6c2.4-1.7,4.6-3.5,6.8-5.5c2.2-2-0.6-5.1-3-3.9c-3.2,1.6-6.4,3.1-9.6,4.7
				c1,1.3,2,2.6,3,3.9c3.6-3.6,7.7-6.8,9.5-11.7c0.8-2.1-1.9-3.9-3.7-2.8c-4.2,2.6-8.5,5.1-13.1,7c0.8,1.4,1.6,2.8,2.4,4.2
				c3.5-4,7.1-7.8,10.8-11.5c2-1.9-0.7-5.6-3-3.9c-3.6,2.6-7.1,5.1-10.9,7.4c1.1,1.1,2.3,2.3,3.4,3.4c2.8-4.3,5.6-8.6,8.4-12.9
				c1.4-2.1-1.3-4.8-3.4-3.4c-5.8,3.7-10.3,8.7-14.7,13.9c1.4,0.6,2.8,1.2,4.3,1.8c0.2-3.2,4.7-7,6.6-9.5c2.2-2.9,4.2-5.9,6.1-8.9
				c1.3-2-1.4-4.9-3.4-3.4c-5.7,4.1-11,7.9-14.6,13.8c-1.6,2.6-0.6,4.8,0.1,7.6c1.3,4.8,2.6,9.6,3.9,14.3c0.4,1.3,1.8,2.1,3.1,1.7
				c3.8-0.9,7.7-0.4,11.6-0.9c3.9-0.5,7.7-2.5,11.6-1.9C314,500.4,315.3,495.6,312.2,495L312.2,495z"/>
		</g>
	</g>
	<g id="XMLID_124_">
		<g id="XMLID_364_">
			<path id="XMLID_369_" class="st2" d="M302,498.3c-3.6,0-7.2-0.5-10.8,0c-2.7,0.4-4.4,1.6-6.8,2.7c1.1,0.3,2.3,0.6,3.4,0.9
				c0-0.1-0.1-0.1-0.1-0.2c0.1,0.6,0.2,1.3,0.3,1.9c-0.7,0.7-0.8,0.9-0.3,0.5c1-0.6,1.4-1.7,1.1-2.8c-1.2-5.9-2.1-11.8-2.7-17.7
				c-0.3-3.2-5.3-3.2-5,0c0.6,6.4,1.6,12.7,2.9,19c0.4-0.9,0.8-1.9,1.1-2.8c-1.5,0.9-3,2.8-1.7,4.6c0.9,1.2,2.1,1.5,3.4,0.9
				c2.4-1.1,3.8-2.1,6.6-2.2c2.8-0.1,5.7,0.2,8.5,0.2C305.3,503.2,305.3,498.2,302,498.3L302,498.3z"/>
		</g>
	</g>
</g>
<g id="Color2">
	<g id="XMLID_293_">
		<g id="XMLID_254_">
			<path id="XMLID_258_" class="st3" d="M298.7,268.6c1.4-0.7,2.5-1.5,3.6-2.6c1.7-1.6,0-5.1-2.4-4.2c-1.8,0.7-3.4,1.5-5,2.6
				c0.8,1.4,1.7,2.9,2.5,4.3c3.3-2.3,5.5-6.4,10.1-5.5c1.7,0.3,2.9-0.7,3.2-2.4c0.1-0.4,0.1-0.8,0.2-1.2c-1.1,0.8-2.1,1.6-3.2,2.4
				c0.5,0.2,3.8,0.7,4.2,1c1.6,1.3,1.5,5.7,1.5,7.4c1.6-0.2,3.3-0.4,4.9-0.7c-0.2-0.6-0.4-1.2-0.7-1.7c-1.4,0.8-2.8,1.6-4.2,2.4
				c0.3,0.3,0.5,0.6,0.8,0.9c1.2,2.1,4.8,1.3,4.7-1.3c-0.1-1.5-0.4-2.8-0.6-4.3c-0.5-2.7-5.3-2.1-4.9,0.7c0.9,6.7-0.4,13-2.7,19.3
				c-1.1,3.1,3.7,4.3,4.8,1.3c0.6-1.4,1.1-2.8,1.7-4.2c-1.6-0.4-3.2-0.9-4.8-1.3c-0.3,0.8-0.5,1.7-0.8,2.5c1.5,0.6,3,1.3,4.6,1.9
				c0.5-1.8,1-3.7,1.5-5.5c-1.6-0.4-3.2-0.9-4.8-1.3c-0.8,4.6-2.3,8.8-4.3,12.9c-1.6,3.3-3.2,8.2-6.7,9.9c1.1,1.1,2.3,2.3,3.4,3.4
				c4.1-8.5,8.3-17,10.2-26.5c1.6-8.3-1.1-14.1-7.9-18.8c-0.4,1.6-0.8,3.1-1.3,4.7c2.3,0,3.8,0.9,4.5,2.9c1.5,2.9,5.8,0.3,4.3-2.5
				c-1.8-3.6-4.9-5.3-8.9-5.4c-2.6,0-3.2,3.3-1.3,4.7c7.6,5.2,6.3,11.9,3.9,19.6c-2.1,6.7-4.9,12.6-7.9,18.8
				c-1.1,2.3,1.1,4.5,3.4,3.4c4.1-1.9,5.9-6.3,7.8-10.2c2.5-5,4.6-10.1,5.6-15.6c0.5-3.1-4-4.5-4.8-1.3c-0.5,1.8-1,3.7-1.5,5.5
				c-0.7,2.6,3.4,4.6,4.6,1.9c0.6-1.4,0.9-2.2,1.3-3.7c0.9-3.2-3.7-4.3-4.8-1.3c-0.6,1.4-1.1,2.8-1.7,4.2c1.6,0.4,3.2,0.9,4.8,1.3
				c2.4-6.7,3.8-13.5,2.9-20.6c-1.6,0.2-3.3,0.4-4.9,0.7c0.2,1,0.3,2,0.5,2.9c1.6-0.4,3.1-0.8,4.7-1.3c-0.5-0.9-0.8-1.2-1.6-1.9
				c-1.7-1.4-5.2-0.2-4.2,2.4c0.2,0.6,0.4,1.2,0.7,1.7c1,2.5,4.9,2.3,4.9-0.7c0-3.2-0.3-7.5-2.3-10.2c-1.6-2.1-4.7-2.4-7.1-3.1
				c-1.7-0.5-3,0.9-3.2,2.4c-0.1,0.4-0.1,0.8-0.2,1.2c1.1-0.8,2.1-1.6,3.2-2.4c-2.5-0.5-4.9-0.5-7.3,0.6c-2.7,1.3-4.3,3.8-6.7,5.5
				c-2.6,1.8-0.2,6.1,2.5,4.3c1.2-0.9,2.4-1.6,3.9-2.1c-0.8-1.4-1.6-2.8-2.4-4.2c-0.7,0.8-1.6,1.4-2.6,1.8
				C293.3,265.7,295.8,270,298.7,268.6L298.7,268.6z"/>
		</g>
	</g>
	<g id="XMLID_294_">
		<g id="XMLID_248_">
			<path id="XMLID_252_" d="M260.5,341.7c-0.2,1.5-0.7,2.9-1.4,4.3c1.6,0.4,3.1,0.8,4.7,1.3c0.6-4.9,1.2-9.7,1.8-14.6
				c0.4-2.8-4.3-3.4-4.9-0.7c-2.7,11.3-5.5,22.6-8.2,33.9c-2.5,10.3-5.9,20.8-6.1,31.4c-0.1,3.2,4.9,3.2,5,0
				c0.2-10.8,3.8-21.6,6.4-32c2.6-10.7,5.2-21.4,7.8-32.1c-1.6-0.2-3.3-0.4-4.9-0.7c-0.6,4.9-1.2,9.7-1.8,14.6
				c-0.3,2.5,3.6,3.4,4.7,1.3c0.9-1.8,1.5-3.5,1.9-5.5C265.9,339.9,261.1,338.5,260.5,341.7L260.5,341.7z"/>
		</g>
	</g>
	<g id="XMLID_296_">
		<g id="XMLID_242_">
			<path id="XMLID_246_" d="M282.4,408.7c-1,0-1.8,0.2-2.7,0.5c-1,0.4-0.9,0.6-0.9-0.7c-0.2-2.5,0.5-5.2,1.1-7.6
				c0.8-3.1-4-4.4-4.8-1.3c-0.9,3.5-2.2,8.3-0.7,11.8c0.6,1.5,1.7,2.7,3.3,3c1.8,0.4,3.1-0.9,4.8-0.8
				C285.6,413.8,285.6,408.8,282.4,408.7L282.4,408.7z"/>
		</g>
	</g>
	<g id="XMLID_297_">
		<g id="XMLID_236_">
			<path id="XMLID_240_" d="M269.2,394.9c-6.1-6.2-12.1,1.3-14.9,6.5c-0.9,1.6,0.2,3.8,2.2,3.8c4.6-0.1,8-2.8,9.1-7.2
				c0.5-2-1.8-4.1-3.7-2.8c-4.5,3.1-7.6,7-9.4,12.2c-1.1,3.1,3.7,4.3,4.8,1.3c2-4.9,3-9.9,3.5-15.1c-1.7,0-3.3,0-5,0
				c0,2-0.2,3.7-0.8,5.6c1.6,0,3.2,0,4.8,0c-0.4-1.6-0.5-3.2-0.2-4.8c-1.6,0-3.2,0-4.8,0c0.7,2.3,0.6,4.1-0.6,6.2
				c1.6,0.4,3.1,0.8,4.7,1.3c0.6-5.8,1.3-11.5,2.1-17.2c0.3-2-1.1-3.4-3.1-3.1c-1.8,0.3-3.1,1.2-4.1,2.8c-1.1,1.7-0.9,4.9-2.6,6.1
				c1.2,0.9,2.4,1.9,3.7,2.8c0.9-6.2,1.8-12.3,2.7-18.5c-1.6-0.2-3.3-0.4-4.9-0.7c-0.3,3.2-0.1,6.3,0.4,9.5c0.4,2.8,5.1,2.1,4.9-0.7
				c-0.6-7.4-0.3-14.6,1.1-21.9c-1.6-0.2-3.3-0.4-4.9-0.7c-0.2,2.9-0.4,5.9-0.6,8.8c-0.2,2.9,4.1,3.2,4.9,0.7
				c2.5-7.5,5.2-14.8,8.1-22.2c1.1-2.7-3.2-4.3-4.6-1.9c-3.1,5.4-5.3,11.1-7,17.1c-1.4,5.3-3.7,12.4-3,18c0.4,3.2,3.3,6.3,6.8,5.3
				c1.8-0.5,2.2-1.7,3-3.1c1.1-1.9,2.4-3.2,4.2-4.3c0.4-0.2,0.9-0.5,1.3-0.7c1.6-1.2,3.2-1.2,4.8,0.2c1.5,0.6,3,1.3,4.6,1.9
				c0.3-0.9,0.6-1.7,0.9-2.6c-1.6-0.2-3.3-0.4-4.9-0.7c-0.5,9.4-0.6,18.8-0.1,28.1c0.2,4.6-0.1,11.2,5.9,11.8c0-1.7,0-3.3,0-5
				c-3.2,0.1-5.7,0.9-8.3,2.8c1.3,0.7,2.5,1.4,3.8,2.2c0.5-6.7,0.1-13.3-1.1-19.9c-0.5-2.9-4.8-2-4.9,0.7c-0.2,5,0.2,9.8,1.1,14.7
				c0.5,2.8,5,2.1,4.9-0.7c-0.1-3.3-0.6-6.4-1.5-9.5c-0.8-2.8-4.8-2.1-4.9,0.7c-0.1,5.1,0.2,10.1,0.9,15.1c0.4,2.9,4.7,2,4.9-0.7
				c0.5-7.8,0.8-15.6,0.6-23.4c-0.1-3.9-0.2-7.8-0.4-11.7c-0.1-2,0-3.8-1.7-5.2c-0.9-0.8-1.9-0.9-3-0.4c-2.4,1.2-4.4,3.4-6.3,5.1
				c-1.8,1.6-3.9,3.2-4.5,5.7c-0.9,3.5,1.7,7,5.1,7.7c8.5,1.7,9-14.6,1-16.7c-0.8-0.2-1.9,0-2.4,0.6c-6.1,7.1,1,13.8,7.4,16.9
				c1.6,0.8,3.9-0.1,3.8-2.2c-0.4-5.1-3.8-8.5-8.9-9c-3.2-0.3-3.2,4.7,0,5c2.4,0.3,3.7,1.6,3.9,4c1.3-0.7,2.5-1.4,3.8-2.2
				c-2.8-1.4-10.1-4.8-6.4-9.1c-0.8,0.2-1.6,0.4-2.4,0.6c3.2,0.8,1.1,3.7,1.7,5.4c-0.7-1.7-0.4-1.5,1-2.8c1.8-1.6,3.8-3.8,5.9-4.9
				c-1-0.1-2-0.3-3-0.4c1.1,0.9,0.5,6.9,0.6,8.5c0.1,3.2,0.2,6.5,0.1,9.7c0,6.2-0.3,12.3-0.7,18.5c1.6-0.2,3.3-0.4,4.9-0.7
				c-0.7-4.6-0.9-9.2-0.7-13.8c-1.6,0.2-3.3,0.4-4.9,0.7c0.7,2.7,1.2,5.4,1.3,8.2c1.6-0.2,3.3-0.4,4.9-0.7
				c-0.8-4.5-1.1-8.9-0.9-13.4c-1.6,0.2-3.3,0.4-4.9,0.7c1.1,6.2,1.4,12.3,0.9,18.5c-0.1,1.8,2.3,3.2,3.8,2.2c1.8-1.3,3.4-2,5.7-2.1
				c3.3-0.1,3.1-4.7,0-5c-2.6-0.3-0.9-31.7-0.7-35c0.2-3-4-3.2-4.9-0.7c-0.3,0.9-0.6,1.7-0.9,2.6c-1,2.7,3.1,4.2,4.6,1.9
				c1.9-3,0.8-6.8-2.5-8.2c-4-1.8-9.1,0.7-12.2,3.2c-1.2,0.9-2.2,1.9-3.1,3.1c-0.8,1-0.5,1.8-1.5,1.1c-1.2-0.9,1-9.1,1.3-10.5
				c1.6-7.4,3.9-14.5,7.7-21.2c-1.5-0.6-3-1.3-4.6-1.9c-2.9,7.3-5.6,14.7-8.1,22.2c1.6,0.2,3.3,0.4,4.9,0.7c0.2-2.9,0.4-5.9,0.6-8.8
				c0.2-2.8-4.4-3.4-4.9-0.7c-1.5,7.7-1.9,15.4-1.3,23.3c1.6-0.2,3.3-0.4,4.9-0.7c-0.4-2.8-0.4-5.4-0.2-8.2c0.2-2.8-4.5-3.5-4.9-0.7
				c-0.9,6.2-1.8,12.3-2.7,18.5c-0.3,1.9,1.7,4.2,3.7,2.8c1.2-0.8,2-1.5,2.7-2.9c0.7-1.4,1-5.2,2.8-5.5c-1-1-2.1-2.1-3.1-3.1
				c-0.9,6.2-1.6,12.3-2.3,18.5c-0.3,2.5,3.5,3.3,4.7,1.3c1.8-3.3,2.2-6.5,1.1-10.1c-0.7-2.2-4.4-2.6-4.8,0
				c-0.4,2.6-0.4,4.9,0.2,7.5c0.5,2.5,4.1,2.2,4.8,0c0.7-2.3,1-4.5,1-6.9c-0.1-3.3-4.8-3.2-5,0c-0.4,4.8-1.5,9.3-3.3,13.8
				c1.6,0.4,3.2,0.9,4.8,1.3c1.4-3.9,3.7-6.9,7.1-9.2c-1.2-0.9-2.4-1.9-3.7-2.8c-0.4,2.4-1.8,3.5-4.3,3.6c0.7,1.3,1.4,2.5,2.2,3.8
				c1.1-1.9,4.3-8.4,7-5.5C267.9,400.8,271.5,397.2,269.2,394.9L269.2,394.9z"/>
		</g>
	</g>
	<g id="XMLID_298_">
		<g id="XMLID_230_">
			<path id="XMLID_234_" d="M271.4,383.8c0-0.1,0-1,0-0.7c0-0.3,0.1-0.5,0.2-0.8c0.2-0.6,0.3-0.8,0.7-1.4c-1.5-0.2-3-0.4-4.6-0.6
				c0,0.3,0.1,0.6,0.1,0.9c0.2,1.3,1.9,2.1,3.1,1.7c1.4-0.4,2-1.7,1.7-3.1c0-0.3-0.1-0.6-0.1-0.9c-0.1-1-1.2-1.7-2.1-1.8
				c-1-0.1-1.9,0.3-2.5,1.2c-1,1.6-1.6,3.5-1.5,5.4c0,1.3,1.1,2.6,2.5,2.5C270.2,386.3,271.4,385.2,271.4,383.8L271.4,383.8z"/>
		</g>
	</g>
	<g id="XMLID_301_">
		<g id="XMLID_224_">
			<path id="XMLID_228_" d="M278.1,376.1c0.3-1.4,0-2.6-0.9-3.7c-0.8-1-2.7-0.9-3.5,0c-1,1.1-0.9,2.4,0,3.5
				c-0.2-0.2-0.3-0.4-0.4-0.8c0-0.2,0-0.2,0-0.1c0,0.2,0,0.1,0-0.3c-0.3,1.3,0.4,2.8,1.7,3.1C276.3,378.2,277.7,377.5,278.1,376.1
				L278.1,376.1z"/>
		</g>
	</g>
	<g id="XMLID_302_">
		<g id="XMLID_218_">
			<path id="XMLID_222_" d="M266.9,398.3c0.2,1.7,0.5,2,0.6,3.2c0.1,1.4,0,3,0.1,4.5c0,3.7,0,7.3,0.6,11c0.5,3.2,5.3,1.8,4.8-1.3
				c-0.6-3.8-0.3-7.6-0.5-11.5c0-0.8,0.1-1.6,0-2.4c-0.1-1.6-0.6-3.1-0.8-4.8C271.3,393.8,266.4,395.1,266.9,398.3L266.9,398.3z"/>
		</g>
	</g>
</g>
<g id="Color">
	<g id="XMLID_9_">
		<g id="XMLID_214_">
			<path id="XMLID_247_" class="st0" d="M483.6,310.4c1.2-11.6-9.3-18.1-19.5-13.7c-1.6,0.7-0.7-0.1,0.4-0.2c0.1,0,2.2,0,2.2,0.1
				c-0.1,0.1-2.5-0.6-2.7-0.6c-4.6-1-9.4-1.6-14.1-1.7c-17.5-0.5-34.7,5.1-50.8,11.4c-15.3,6-30.8,13.2-47.2,15.3
				c-15.4,2-27.4-2.6-40.2-10.1c-12.8-7.4-25.6-15.3-40.5-17.3c-8.8-1.2-17.8,0-25.2,5.2c-6.8,4.8-11.6,11.5-15.6,18.7
				c-16.5,29-23.6,62.5-18.8,95.6c4.7,32.3,19.8,64.1,47.4,82.7c2.1-7.8,4.2-15.5,6.3-23.3c-15.4-1.6-28.8-12-40-23
				c-6.5-6.4-18.7-3.8-20.9,5.5c-1.9,8.2,0.2,16.3,6,22.4c5.2,5.5,12.3,8.1,19.4,10.1c1.1-8.2,2.2-16.4,3.3-24.6
				c-5.6-0.2-11.3,1.3-15.2,5.5c-0.1,0.1-2.1,2.4-2.5,3.3c-2.8,5.9,10.1-8,13.4-4c-0.8-0.9-2.6-1.7-3.7-2.2
				c-6.6-3.4-13.6-6.3-20.3-9.5c-0.9-0.4-1.5-1.5-0.2,0c0.5,0.6,2.9,3.5,0.7,0.4c-1.8-2.6-3.6-5.2-5.3-7.9
				c-3.1-4.9-5.8-10.1-8.3-15.3c-4.7-10.2-8-21.8-10-33.1c-3.8-21.9-1.5-45.3,6.3-66.6c9.1-24.7,24.4-47.4,22-74.9
				c-2.4-27.1-17.1-52.1-40.6-66.2c-1,7.6-2,15.2-3,22.8c22.8-5.8,46.2,2.7,65.7,15.1c8.4,5.3,18.9,11.6,20.5,21.8
				c1.5,9.3-3.4,21.4-7.6,30.9c7.6,3.2,15.2,6.4,22.8,9.6c2-7.1,4.9-13.4,8.9-19.6c-7.2-4.2-14.4-8.4-21.6-12.6
				c-4.6,8.9-8.1,18.3-10,28.2c8.2,1.1,16.4,2.2,24.6,3.3c-1.5-18,14.9-29.6,28.1-38.9c5.5-3.9,8.1-10.9,4.5-17.1
				c-3.2-5.5-11.5-8.3-17.1-4.5c-7.4,5.1-15.1,9.6-23.2,13.3c-0.6,0.3-5.3,2.2-5.3,2.2c1.1,0.2,2.2,0.3,3.3,0.5
				c0.7,0,0.3-0.3-1.2-1.2c-2.3-3.3-7.2-6-10.3-8.5c-14.2-11.1-29.3-20.7-45.6-28.6c-12.8-6.2-24.7,8.7-15.1,19.6
				c13.9,15.9,27.9,31.8,41.8,47.7c1.2,1.4,8.5,11.2,9.6,10.9c-2,0.4,2.1-6.9-0.8-4.3c-0.7,0.7-1.2,2.6-1.7,3.5
				c-1.1,2.3-2.2,4.6-3.3,6.9c-4.6,9.5-9.2,19-13.8,28.5c7.6,1,15.2,2,22.8,3c-2.4-15.9-1.8-31.9,0.3-47.7
				c2.1-16.5-2-35.1-20.1-40.3c-6.6-1.9-13.5,2.3-15.4,8.7c-14.2,47.9-10.7,99.3-28,146.4c-4.9,13.3,16.3,22,22.8,9.6
				c10.6-20.1,19.7-41,27.1-62.4c-8.2-1.1-16.4-2.2-24.6-3.3c1.1,12.7-2.9,24.3-7.2,36.5c-4.7,13.2-9.1,26.1-10,40.1
				c-0.4,6.7,6.1,12.5,12.5,12.5c7.2,0,12-5.7,12.5-12.5c2.6-34.9,2.3-69.9-1-104.7c-0.8-8.8-10.2-16.4-18.8-10.8
				c-8.3,5.4-10.1,13.8-12.1,22.8c-1.9,8.7-3.7,17.5-5,26.3c-2.7,17.9-3.7,35.8-0.4,53.7c1.7,9,4.8,17.6,8.8,25.8
				c3.2,6.6,7.1,12.8,10,19.5c3.8,8.7,2.4,21.8,13.7,24.9c12.5,3.5,23.5-13.6,12.7-22.4c-5.6-4.6-12.1-4.7-17.7,0
				c-0.1,0.1-0.2,0.2-0.3,0.3c-5.2,4.4-4.5,13.2,0,17.7c5.1,5.1,12.5,4.4,17.7,0c0.1-0.1,0.2-0.2,0.3-0.3c-5.9,0-11.8,0-17.7,0
				c0.1,0.1,0.2,0.2,0.3,0.2c-1.1-1.8-2.1-3.7-3.2-5.5c-0.1-0.8-0.2-1.5-0.3-2.3c1.2-2.9,2.4-5.9,3.7-8.8c-0.1,0.1-0.2,0.2-0.3,0.3
				c2.9-1.2,5.9-2.4,8.8-3.7c-0.2,0-0.5-0.1-0.7-0.1c2.9,1.2,5.9,2.4,8.8,3.7c-0.3-0.2-0.6-0.5-0.8-0.7c1.1,1.8,2.1,3.7,3.2,5.5
				c-0.1,1.1-0.2,0.8-0.3-1.1c-0.1-1.1-0.3-2.2-0.5-3.3c-0.2-1.4-0.5-2.7-0.9-4c-0.8-2.9-1.9-5.8-3-8.6c-2.6-6.2-5.7-12.1-8.8-18
				c-5.4-10.3-9.3-21.1-10.3-32.8c-1.1-12.3-0.1-24.8,1.8-37c1-6.2,2.2-12.3,3.5-18.4c0.7-3.2,1.4-6.3,2.1-9.5
				c0.3-1.4,0.6-2.8,1-4.2c0.7-2.4,0.1,0.4-1.6,1.5c-6.3-3.6-12.5-7.2-18.8-10.8c3.3,34.8,3.6,69.8,1,104.7c8.3,0,16.7,0,25,0
				c0.8-12.2,6.1-24.7,10.2-36.6c4.5-12.8,8.2-26.3,7-40.1c-1.2-14-19.8-17-24.6-3.3c-6.7,19.5-15,38.3-24.6,56.5
				c7.6,3.2,15.2,6.4,22.8,9.6c17.4-47.1,13.9-98.5,28-146.4c-5.1,2.9-10.3,5.8-15.4,8.7c-1.2-0.3,1.3,0.9,0.5,0.2
				c1,1,0.6,0.7,1,1.5c0.5,0.9,1,3.3,1,5.3c0,6.9-1.5,13.7-2.1,20.5c-1.2,14.4-0.3,28.8,1.9,43.1c1.6,10.5,18.4,12.2,22.8,3
				c5.1-10.7,10.3-21.3,15.4-32c2.8-5.8,7-12.2,6.8-18.9c-0.2-7.4-5.2-12.4-9.7-17.6c-16.1-18.4-32.2-36.7-48.3-55.1
				c-5,6.5-10.1,13.1-15.1,19.6c17.4,8.4,34,18.8,48.8,31.4c4.1,3.5,8,7.5,13.4,9c6.8,1.9,12.9-0.8,19-3.4c9.3-4,18.2-8.9,26.5-14.7
				c-4.2-7.2-8.4-14.4-12.6-21.6c-20.2,14.3-42.8,32.9-40.5,60.5c0.5,6.2,4.3,11.5,10.8,12.3c5.7,0.7,12.5-2.8,13.7-9
				c1.5-7.8,3.8-15.2,7.5-22.2c7.4-14.3-12.9-26.2-21.6-12.6c-5,7.9-8.8,16.6-11.4,25.6c-1.7,5.9,1.6,12.5,7.2,14.7
				c5.2,2.1,13.1,0.7,15.6-5.1c6.3-14.1,12.6-29.5,10.8-45.3c-2.1-18.1-14.2-29.1-28.5-38.8c-25.9-17.6-58-28.2-89.2-20.4
				c-10.6,2.7-12,17.4-3,22.8c17.2,10.4,28.2,30,28.5,49.7c0.2,11.5-3.8,23-8.9,34.4c-5.5,12.5-11.6,24.7-15.4,37.9
				c-7,24.5-7.6,50.6-2.4,75.5c2.6,12.4,6.8,24.4,12.3,35.9c2.5,5.2,5.3,10.3,8.4,15.2c3.3,5.1,6.6,11,11.8,14.4
				c6.8,4.4,14.8,6.6,21.9,10.4c5,2.7,9.5,5.7,15.5,3.9c3.6-1,6.1-3.5,8.2-6.5c0.7-1,1.4-1.3-0.8,1c-0.9,0.9-1.9,1.5-3,1.9
				c-1.6,0.2-1.5,0.3,0.2,0.3c14.3,0.6,16.7-20.8,3.3-24.6c-1.6-0.5-3.3-0.9-4.9-1.5c-0.2-0.1-1.9-1.2-2.4-1.2
				c-1.2,0-0.4-0.9-0.8,0.8c-7,1.8-13.9,3.7-20.9,5.5c16.2,15.9,34.7,27.9,57.7,30.3c5.4,0.6,10.7-4.3,12.1-9.2
				c1.5-5.6-1.1-11-5.7-14.1c-19-12.9-29.4-35.5-34.2-58.2c-5.4-25.5-1.7-52.9,9.7-76.8c2.6-5.4,5.3-11,8.9-15.7
				c0.5-0.7,3.3-3.6,3.8-4c2-1.4,4.7-1.8,8-1.4c11.3,1.3,21.3,8.5,31.3,14.3c12.3,7.1,24.9,12.6,39.2,13.8c15.8,1.3,31.8-3,46.6-8.3
				c15.8-5.7,31.1-13.1,47.5-16.9c7.3-1.7,14.9-2.5,22.3-1.6c4.2,0.5,8,2,12.3,1.7c2-0.1,3.3-0.4,5.1-1c1.2-0.5,2.5-1,3.7-1.6
				c1.3-0.6,0.8-0.4-1.6,0.7c-2.2,0-4.4,0-6.6,0c0.1,0,0.2,0.1,0.3,0.1c-2.5-1.9-5-3.8-7.5-5.7c0.1,0.1,0.1,0.2,0.2,0.3
				c-0.6-2.1-1.1-4.2-1.7-6.3c0.1,0.9,0,1.7-0.1,2.6c-0.7,6.7,6.2,12.5,12.5,12.5C478.5,322.9,483,317.1,483.6,310.4L483.6,310.4z"
				/>
		</g>
	</g>
	<g id="XMLID_10_">
		<g id="XMLID_206_">
			<path id="XMLID_210_" class="st0" d="M197.2,406.7c-1.2,19.2,6.9,36,15.9,52.4c7.8,14.1,29.4,1.5,21.6-12.6
				c-7-12.7-13.4-24.9-12.5-39.7c0.4-6.7-6-12.5-12.5-12.5C202.6,394.2,197.6,400,197.2,406.7L197.2,406.7z"/>
		</g>
	</g>
	<g id="XMLID_12_">
		<g id="XMLID_200_">
			<path id="XMLID_204_" class="st0" d="M152.3,362.7c-0.5,5.6-1.8,11.1-2.4,16.7c-0.7,6.2,0,12.5,1.3,18.6
				c1.2,5.4,3.7,10.1,5.9,15.1c1.9,4.4,3,9.1,3.7,13.8c1,6.7,9.5,10.4,15.4,8.7c7.2-2,9.7-8.7,8.7-15.4c-0.7-4.7-1.8-9.3-3.6-13.7
				c-1.9-4.8-4.3-8.8-5.5-13.4c-2.6-10.2,0.6-20.1,1.5-30.4c0.6-6.7-6.1-12.5-12.5-12.5C157.6,350.2,152.9,356,152.3,362.7
				L152.3,362.7z"/>
		</g>
	</g>
	<g id="XMLID_14_">
		<g id="XMLID_194_">
			<path id="XMLID_198_" class="st0" d="M479.8,321.2c10.2-6.3,10.3-23.2-0.2-29.6c-4.9-2.9-11.4-3.2-16.9-4.1
				c-3.4-0.5-6.8-1.1-10.2-1.4c-0.8-0.1-2.4-0.4-3-0.1c1.8-0.9,7.7,7.1,6.4,3.9c-1.8-4.4-7.7-7.1-12.1-7.8c-3.3-0.6-6.2-0.8-9.5,0.2
				c-1.4,0.4-2.8,1.1-4,1.7c-1.2,0.5-1.4,0.7-0.6,0.3c1.3-0.6,2.8-0.6,4.3-0.3c2.5,1.9,5,3.8,7.5,5.7c-0.2-0.2-0.3-0.4-0.5-0.6
				c0.6,2.1,1.1,4.2,1.7,6.3c0-0.3,0-0.5,0-0.8c-0.6,2.1-1.1,4.2-1.7,6.3c0.1-0.2,0.3-0.4,0.4-0.6c-2.5,1.9-5,3.8-7.5,5.7
				c-0.8,0.1-1.6,0.1-2.4,0.2c1.3,0.1,2.6-0.1,3.7-0.6c1.7-0.6,3.2-1.3,4.7-2.4c3.2-2.4,5.4-6.5,5.3-10.5c-0.1-9.1-7-12.4-14.3-15.2
				c-5.3-2.1-10.6-4-16-5.8c-2.7-0.9-5.4-1.8-8.1-2.6c-1.2-0.4-2.4-0.7-3.6-1.1c0,0-4.6-1.6-3.1-0.7c1.9,2.5,3.8,5,5.7,7.5
				c-0.1-0.2-0.2-0.4-0.3-0.7c0,2.2,0,4.4,0,6.6c0-0.2,0.1-0.5,0.1-0.7c-1.1,1.8-2.1,3.7-3.2,5.5c0.2-0.2,0.3-0.4,0.5-0.5
				c-1.8,1.1-3.7,2.1-5.5,3.2c-3.4,0-3.9,0.2-1.5,0.7c1.1,0.4,2.1,0.8,3.2,1.2c2.1,0.8,4.2,1.6,6.3,2.4c4.5,1.7,9,3.5,13.5,5.3
				c2.2-8,4.4-16.1,6.6-24.1c-13.4-3.2-24.8-14.1-38.2-18.9c-7.6-2.7-15.8-3.7-23.7-5.4c-4.2-0.9-9-2.5-13.3-2.5
				c-1.6,0-3.3,0.4-4.9,0.8c-1.4,0.5-2.7,1.1-4,1.8c-1.9,0.9-1.4,0.8,1.3-0.1c2.1,0.6,4.2,1.1,6.3,1.7c-0.3-0.2-0.6-0.3-0.9-0.5
				c1.5,1.5,3,3,4.5,4.5c0.7,1.1-0.2-1.3-0.3-1.8c-3.7-11.6-20.6-12.1-24.1,0c0,0.1-0.1,0.3-0.1,0.4c-3.9,13.5,16,22.2,22.8,9.6
				c0.7-1.3,1.2-2.7,1.7-4c1.5-4-0.3-9.3-3.2-12.2c-0.7-0.7-1.4-1.4-2.1-2.1c-3.1-3.1-7.9-4.5-12.2-3.2c-0.4,0.1-0.9,0.3-1.3,0.4
				c5.3,4,10.5,8,15.8,12.1c-0.8-12.1-8.1-20.2-19.4-24c-11.5-3.9-23.3-2-34.7,1.1c-9.8,2.6-19.7,6-27.2,13.2
				c-4.1,3.9-7.6,8.8-10.3,13.8c-2.5,4.6-5.1,9.5-7.2,14.4c-2.7,6.2-1.8,13.4,4.5,17.1c5.3,3.1,14.3,1.7,17.1-4.5
				c1.5-3.4,3.6-6.5,5.1-9.8c1.6-3.5,3.2-7.1,5.6-10.2c3.6-4.6,7.9-6.6,13.3-8.3c6.6-2,13.7-4.4,20.6-4c1.7,0.1,2.4,0.2,4,0.6
				c0.4,0.1,5,1.3,2.8,0.9c0.3,0.2,0.7,0.4,1,0.6c-0.9-0.8-0.9-0.8,0.2,0.2c-0.5-0.4-0.7-1-0.8-1.6c0.4,1.4,0.4,1.6,0.2,0.5
				c0.5,7.8,7.6,14.6,15.8,12.1c0.4-0.1,0.9-0.3,1.3-0.4c-4.1-1.1-8.1-2.1-12.2-3.2c0.7,0.7,1.4,1.4,2.1,2.1
				c-1.1-4.1-2.1-8.1-3.2-12.2c0.3-0.6,0.5-1.3,0.8-1.9c7.6,3.2,15.2,6.4,22.8,9.6c0-0.1,0.1-0.3,0.1-0.4c-8,0-16.1,0-24.1,0
				c1.6,4.9,2.5,9.2,7.3,12.2c4.7,3,12.8,3,17.4-0.6c2.7-1.3,1.3-1.2-4.2,0.2c1.1,0.2,2.2,0.4,3.4,0.7c2.1,0.4,4.3,0.9,6.4,1.4
				c4.7,1,9.4,1.8,14.1,2.8c16.6,3.8,29.3,17.2,46.3,21.2c6.6,1.6,13.5-2.1,15.4-8.7c2-7.1-2.4-12.9-8.7-15.4
				c-8-3.2-16.1-7.1-24.4-9.3c-4.4-1.1-9.3-1.4-13.3,1c-5.1,3-8,9.6-6.3,15.4c2.9,9.9,13.9,10.9,22.3,13.6c8.4,2.7,16.7,5.7,24.8,9
				c-1.8-1.1-3.7-2.1-5.5-3.2c0.2,0.2,0.4,0.4,0.7,0.6c-1.2-2.9-2.4-5.9-3.7-8.8c0,0.3,0.1,0.5,0.1,0.8c0.6-2.1,1.1-4.2,1.7-6.3
				c-0.1,0.2-0.3,0.5-0.4,0.7c2.5-1.9,5-3.8,7.5-5.7c0.8,0,1.5-0.1,2.3-0.1c-1.3-0.1-2.5,0.1-3.7,0.6c-1.7,0.5-3.2,1.3-4.6,2.4
				c-3.2,2.5-5.3,6.4-5.4,10.5c-0.1,7.6,6.1,14.1,13.8,14.3c2.8,0,5.2-0.6,7.8-1.7c0.7-0.3,1.4-0.6,2-0.9c0.7-0.3,0.7-0.3,0.1-0.1
				c-1.1,0.4-2.2,0.5-3.5,0.1c0.4,0.1,0.8,0.2,1.2,0.3c-1.1-0.7-2.3-1.4-3.4-2.1c-0.5-0.6-0.9-1.2-1.4-1.7c0.1,0,0.4,0.8,0.5,0.9
				c1.2,2.2,3.3,4,5.4,5.2c3.5,2.1,7.7,2.1,11.7,2.2c3.3,0.1-1.5-0.3,0.6,0.1c1.5,0.2,3,0.4,4.5,0.7c3,0.5,6,1,8.9,1.5
				c0.8,0.2,2,0.7,2.8,0.6c1.1-0.1-5.2-3.5-5.5-3.9c-1.1-1.7-1.1-4.8,0.1-6.4c1.5-1.5,3-3,4.5-4.5c-0.2,0.1-0.5,0.3-0.7,0.4
				C453.6,308,466.1,329.7,479.8,321.2L479.8,321.2z"/>
		</g>
	</g>
	<g id="XMLID_15_">
		<g id="XMLID_188_">
			<path id="XMLID_192_" class="st0" d="M340,241.7c3.4-8.1-3.1-17.4-10.8-19.8c-5.5-1.7-11.6-0.5-17,1.4
				c-6.2,2.1-10.9,8.7-8.7,15.4c2,6.1,8.8,11,15.4,8.7c1.8-0.6,3.5-1,5.3-1.4c1-0.2,0.6-0.1-1.2,0.1c1.1,0,1.1,0,0-0.1
				c-1.7-0.1-3.2-0.9-4.5-2.2c-0.4-9.3-1.2-12.2-2.6-8.7c-1.2,2.8-0.2,7.2,1.3,9.6c1.5,2.6,4.5,5.1,7.5,5.7c3.2,0.7,6.8,0.6,9.6-1.3
				C337.2,247.2,338.6,244.8,340,241.7L340,241.7z"/>
		</g>
	</g>
	<g id="XMLID_291_">
		<g id="XMLID_182_">
			<path id="XMLID_186_" class="st0" d="M328,260.1c0.5,9.2,0.4,18.3-0.3,27.5c0,0.6-0.2,2.1,0,0.7c-0.1,1.1-0.3,2.1-0.6,3.1
				c-0.5,2.2-1.1,4.5-1.9,6.7c-1.1,2.7-3.4,6.7-5.7,8.4c-4.9,3.8-7.8,9.4-5.1,15.6c2.4,5.4,8.7,9.2,14.7,7.2c7-2.3,12.5-7,15.6-13.7
				c1.6-3.3,2.6-6.7,3.3-10.2c0.6-2.8,0.7-6.3,1.9-8.9c-7.8-2.1-15.5-4.2-23.3-6.3c-0.4,3.2-2.9,6.6-5.1,9.5
				c-3.9,5.2-5.9,11.5-3.9,17.9c2.4,7.8,11.1,11.5,18.4,7.5c5.7-3.2,11.6-4.4,18.1-4.1c3.5,0.2,7,0.7,10.5,0.6
				c2.2-0.1,4.5-0.3,6.7-0.8c0.9-0.1,1.7-0.4,2.5-0.7c1.5-0.6,1.7-0.6,0.6-0.2c-2.1-0.6-4.2-1.1-6.3-1.7c0.3,0.2,0.6,0.3,0.9,0.5
				c-1.5-1.5-3-3-4.5-4.5c0.1-5.9-0.1-7.7-0.7-5.2c-0.3,0.9-0.2,0.8,0.1-0.3c-6.9,12.8,9,24.3,19.6,15.1c8.6-7.4,21.6-9.2,32.5-10.3
				c6.2-0.6,11.5-4.3,12.3-10.8c0.7-6.1-2.8-12-9-13.7c-11.3-3.2-23-6.2-33.7-11.2c-10.9-5.1-20.9-12.5-32.9-14.7
				c-11.4-2-18.5,8.1-14.1,18.4c3,7.1,4.4,14.9,4.7,22.5c0.5,12.2,16.8,17.3,23.3,6.3c-0.6,0.5-0.6,0.4,0-0.1c0.6-0.6,0.6-0.6,0.1,0
				c-0.3-0.1-1.3,0.4-1.9,0.2c-1.8-7-3.7-13.9-5.5-20.9c-6.2,6.9-12.4,13.7-18.5,20.6c-4.5,5-4.9,12.7,0,17.7c4.6,4.6,13.1,5,17.7,0
				c6.2-6.9,12.4-13.7,18.5-20.6c5.8-6.4,4.3-19.1-5.5-20.9c-10.7-2-20.9,1.8-26.5,11.4c7.8,2.1,15.5,4.2,23.3,6.3
				c-0.5-12.4-3.3-23.8-8.2-35.1c-4.7,6.1-9.4,12.2-14.1,18.4c11,1.9,20.2,9.3,30.3,13.7c11.8,5.1,23.9,8.7,36.3,12.2
				c1.1-8.2,2.2-16.4,3.3-24.6c-18.3,1.9-35.9,5.3-50.2,17.6c6.5,5,13.1,10.1,19.6,15.1c3.3-6.2,4.6-13.5,0.6-19.7
				c-2.9-4.4-7.7-6.8-13-6.8c-3,0-5.6,1.5-8.5,1.9c-6.6,0.7-13.3-1-20-0.2c-7.5,1-14.5,3.3-21.2,7.1c6.1,2.5,12.2,5,18.4,7.5
				c-1.2,4.4-1.1,5.3,0.3,2.7c0.5-0.9,1.2-1.8,2-2.6c1.3-1.7,2.4-3.5,3.3-5.4c2.5-5.1,3.5-9.9,4.2-15.5c1.4-12-18.5-17.4-23.3-6.3
				c-2.4,5.5-3.4,10.8-4.7,16.6c-0.2,1-0.5,2-0.8,3c-0.1,0.3-0.8,1.9-0.3,0.8c-0.2,0.4-0.4,0.8-0.7,1.2c0.5-0.6,0.5-0.5-0.1,0.1
				c-0.4,0.9-0.3,0.1,0.6-0.2c3.2,7.6,6.4,15.2,9.6,22.8c21.4-16.4,22.3-43.2,20.9-68c-0.4-6.7-5.5-12.5-12.5-12.5
				C334,247.6,327.7,253.3,328,260.1L328,260.1z"/>
		</g>
	</g>
	<g id="XMLID_292_">
		<g id="XMLID_176_">
			<path id="XMLID_180_" class="st4" d="M304,268.1c-1.4-0.4-2.2-1.8-4.2-2c-2-0.2-3.5,0.5-4.9,1.9c-2.9,3.1-0.9,8.6,3.5,8.5
				c2.2,0,4.4-0.4,6.6-0.6c6.4-0.7,6.4-9.3,0-10c-0.4-0.1-0.9-0.2-1.3-0.3c1,0.8,2,1.5,3,2.3c-0.1-0.1-0.2-0.3-0.3-0.4
				c-0.6,2.3-1.2,4.6-1.8,6.8c0.1,0,0.1-0.1,0.2-0.1c-2-0.3-4-0.5-6.1-0.8c0,0,0.1,0.1,0.1,0.1c1.6-2.8,3.2-5.6,4.9-8.4
				c-4.9-1.1-9.4,0.1-13,3.6c2.4,2.4,4.7,4.7,7.1,7.1c0.4-0.3,0.8-0.6,1.2-0.9c3.3-1.9,3.2-6.8,0-8.6c-7.9-4.6-16.6,11.6-19,17.1
				c-2.5,5.7,5.3,10.7,8.6,5c1.4-2.5,2.9-4.9,4.3-7.4c3.3-5.6-5.1-10.3-8.6-5c-2.7,4-5.3,8.2-7.7,12.4c-1.5,2.6-0.3,6.8,3,7.3
				c2.9,0.5,4.4,2.2,6.8,3.6c1.6,0.9,3.6,0.9,5.1,1.8c1.9,1,2.9,2.4,5.2,2.6c2.3,0.2,4.4-0.7,6-2.4c7.3-8,10.8-19.8,8-30.2
				c-0.9-3.6-5.8-5-8.4-2.2c-3.8,4.1-6.2,8.8-8.6,13.7c-0.3,0.6-1.3,1.9-1.3,2.6c1.8,3.1,3.5,3.9,4.9,2.4c0.3-0.3,0.6-0.6,0.9-0.9
				c1.8-1.6,3.1-4,4.1-6.1c2.6-5.8-6-10.9-8.6-5c-1.7,3.8-5.7,5.9-6.9,9.9c-1.3,3.9,0.7,8.3,4.8,9.4c3.9,1.1,7.6-1.4,9.5-4.6
				c2.9-4.8,4.4-10.1,8.4-14.3c-2.8-0.7-5.6-1.5-8.4-2.2c1.2,4.3,1,8.1-0.8,12.2c-0.8,1.8-1.8,3.4-2.8,5.1c-0.4,0.7-0.8,1.4-1.3,2.1
				c-1.7,1.9-0.9,2.2,2.4,0.9c0-2-6-2.8-7.1-3.3c-3.4-1.5-5.3-3.9-9.2-4.6c1,2.4,2,4.9,3,7.3c2.4-4.2,5-8.3,7.7-12.4
				c-2.9-1.7-5.8-3.4-8.6-5c-1.4,2.5-2.9,4.9-4.3,7.4c2.9,1.7,5.8,3.4,8.6,5c2-4.4,5.3-11.5,9.9-13.8c-1.7,0-3.4,0-5,0
				c0.1,0.1,0.3,0.2,0.4,0.3c0-2.9,0-5.8,0-8.6c-1.3,0.7-2.1,1.4-3.2,2.4c-4.6,4.6,2.5,11.6,7.1,7.1c1-1,1.9-1.4,3.3-1.1
				c4.7,1,8.6-4.7,4.9-8.4c0,0-0.1-0.1-0.1-0.1c-1.5-1.5-4.2-2-6.1-0.8c-0.1,0-0.1,0.1-0.2,0.1c-2.1,1.4-3.4,4.5-1.8,6.8
				c1.9,2.7,4.1,3,7.2,3.3c0-3.3,0-6.7,0-10c-2.2,0.2-4.4,0.6-6.6,0.6c1.2,2.8,2.4,5.7,3.5,8.5c0.2-0.2,0.3-0.3,0.5-0.5
				c-1.2,0.5-2.4,1-3.5,1.5c-2.6-0.2,1.9,1.6,2.4,1.7C307.5,279.6,310.2,269.9,304,268.1L304,268.1z"/>
		</g>
	</g>
	<g id="XMLID_17_">
		<g id="XMLID_537_">
			<path id="XMLID_541_" class="st0" d="M269.8,494.3c2.2,0.8,3.5,3.4,5.3,4.8c2,1.5,4.3,2.2,6.7,1.4c1.6-0.5,2.2-2.2,1.5-3.7
				c-1.3-2.8-2.2-5.9-2.5-9c-0.3-3.2-5.3-3.2-5,0c0.4,4.1,1.5,7.9,3.2,11.6c0.5-1.2,1-2.4,1.5-3.7c-1.9,0.6-3.5-1.6-4.6-2.9
				c-1.4-1.5-2.8-2.6-4.7-3.3C268.1,488.3,266.8,493.1,269.8,494.3L269.8,494.3z"/>
		</g>
	</g>
	<g id="XMLID_18_">
		<g id="XMLID_544_">
			<path id="XMLID_548_" class="st0" d="M275.8,494.4c0-0.1,0-1.3-0.1-1.4c0,0,0,0,0,0.1c0.1-0.3-0.1-0.2-0.9,0.3
				c-0.5-0.4-1-0.8-1.5-1.1c0.1,0.1,0,0.4,0.1,0.5c0,0.2,0,0.2,0,0.1c0.3-0.4,0.2-0.4-0.1-0.2c1.4,0.4,2.8,0.7,4.2,1.1
				c-0.1,0.4-0.1,0.4,0,0.2c0.1-0.3,0.2-0.5,0.4-0.8c0.2-0.4,0.4-0.8,0.6-1.2c0.5-0.9,1-1.8,1.6-2.7c1.7-2.7-2.6-5.2-4.3-2.5
				c-0.8,1.2-1.5,2.5-2.2,3.9c-0.7,1.4-1.5,2.9-0.9,4.5c0.8,1.9,2.6,2.3,4.2,1.1c2.2-1.7,2.3-6.7-0.7-7.7c-1.5-0.5-3,0-4.1,1.1
				c-1.2,1.3-1.4,3.1-1.2,4.8c0.1,1.3,1,2.5,2.5,2.5C274.5,496.9,275.9,495.7,275.8,494.4L275.8,494.4z"/>
		</g>
	</g>
	<g id="XMLID_19_">
		<g id="XMLID_551_">
			<path id="XMLID_555_" class="st0" d="M275.9,483.7c-0.4,1.9-0.4,3.8,0.3,5.6c0.6,1.6,1.9,2.8,2.4,4.4c1.6-0.4,3.2-0.9,4.8-1.3
				c-0.2-0.5-0.4-1-0.7-1.5c-1.8-2.6-6.2-0.1-4.3,2.5c0.1,0.1,0.1,0.2,0.2,0.3c0.5,1.3,1.7,2.1,3.1,1.7c1.2-0.3,2.2-1.8,1.7-3.1
				c-0.9-2.6-3.3-4.4-2.7-7.3C281.3,481.9,276.5,480.6,275.9,483.7L275.9,483.7z"/>
		</g>
	</g>
	<g id="XMLID_20_">
		<g id="XMLID_596_">
			<path id="XMLID_600_" class="st0" d="M244.5,493.8c-6.4-4.1-14.1-5.1-20.7-8.8c-0.4,1.6-0.8,3.1-1.3,4.7c0.5,0.1,1.1,0.2,1.6,0.3
				c0.4-1.6,0.8-3.1,1.3-4.7c-0.7-0.2-1.5-0.4-2.2-0.5c-0.2,1.6-0.4,3.3-0.7,4.9c1.9,0.3,3.9,0.1,5.8,0.4c2.9,0.3,5.8,1.9,8.4,3
				c4.1,1.7,8.1,3.6,12.3,5c8.4,2.9,17,4.1,25.6,1.3c3.1-1,1.8-5.4-1.3-4.8c-0.9,0.1-1.7,0.3-2.6,0.6c-3.1,0.9-1.8,5.5,1.3,4.8
				c0.9-0.2,1.7-0.4,2.6-0.6c3.1-0.8,1.8-5.5-1.3-4.8c-2.2,0.5-4.3,0.9-6.4-0.1c0,1.4,0,2.9,0,4.3c3.1-1.5,8.4,2.9,12,3
				c3.2,0.1,3.2-4.9,0-5c-5.8-0.2-8.3-5.2-14.5-2.3c-1.7,0.8-1.6,3.5,0,4.3c3.4,1.7,6.6,1.5,10.3,0.7c-0.4-1.6-0.9-3.2-1.3-4.8
				c-0.9,0.3-1.7,0.5-2.6,0.6c0.4,1.6,0.9,3.2,1.3,4.8c0.8-0.3,1.7-0.5,2.6-0.6c-0.4-1.6-0.9-3.2-1.3-4.8
				c-9.5,3.1-18.7,0.6-27.7-3.1c-4.1-1.7-8.2-3.6-12.3-5.2c-3.6-1.4-6.9-1.1-10.7-1.6c-3-0.4-3.1,4-0.7,4.9c1.5,0.6,1.9,0.6,3.5,0.7
				c2.4,0.1,3.6-3.7,1.3-4.7c-1.6-0.7-2.3-0.9-4.1-1c-2.5-0.1-3.4,3.5-1.3,4.7c6.6,3.7,14.3,4.6,20.7,8.8
				C244.7,499.9,247.2,495.6,244.5,493.8L244.5,493.8z"/>
		</g>
	</g>
	<g id="XMLID_128_">
		<g id="XMLID_590_">
			<path id="XMLID_594_" class="st0" d="M235.5,491.8c-1.6-3.2-4.2-5.2-7.3-6.9c-1.4-0.8-3.2-0.1-3.7,1.5c-0.8,2.6,0.8,6,4,4.5
				c2.8-1.4,2-4.6-0.3-5.9c-1.6-0.9-3.8,0.2-3.8,2.2c0.4,11.5,16.5,5.9,22.2,11.4c2.3,2.2,5.9-1.3,3.5-3.5
				c-2.9-2.8-6.3-3.7-10.2-4.2c-2.5-0.3-10.4,0.1-10.5-3.7c-1.3,0.7-2.5,1.4-3.8,2.2c1.2-0.5,2.4-1,3.7-1.5c-1.2,0.5-2.4,1-3.7,1.5
				c2.3,1.3,4.2,2.7,5.5,5.1C232.7,497.2,237,494.6,235.5,491.8L235.5,491.8z"/>
		</g>
	</g>
	<g id="XMLID_127_">
		<g id="XMLID_584_">
			<path id="XMLID_588_" class="st0" d="M231,490c-2.3-1.1-4.7-2.1-7.1-3c-1.3-0.5-2.7,0.5-3.1,1.7c-0.4,1.4,0.5,2.6,1.7,3.1
				c2,0.7,4,1.5,5.9,2.4c1.2,0.6,2.7,0.3,3.4-0.9C232.5,492.3,232.2,490.6,231,490L231,490z"/>
		</g>
	</g>
	<g id="XMLID_126_">
		<g id="XMLID_574_">
			<path id="XMLID_578_" class="st0" d="M277.4,497.8c-1.6-0.2-3-0.3-4.5,0.2c-1.2,0.3-2.1,0.7-3.4,0.7c-3,0-3.2,3.9-0.7,4.9
				c1.2,0.5,2.4,0.9,3.6,1.3c3.1,1,4.4-3.9,1.3-4.8c-1.2-0.4-2.4-0.8-3.6-1.3c-0.2,1.6-0.4,3.3-0.7,4.9c1.3,0,2.6-0.2,3.9-0.6
				c0.9-0.3,1.7-0.6,2.7-0.4c1.3,0.2,2.7-0.3,3.1-1.7C279.5,499.7,278.7,498,277.4,497.8L277.4,497.8z"/>
		</g>
	</g>
	<g id="XMLID_125_">
		<g id="XMLID_304_">
			<path id="XMLID_334_" class="st0" d="M307.8,451.5c2.5,3.3,4.5,6.9,7.8,9.6c0.8-1.2,1.6-2.4,2.4-3.6c-1.9-0.9-3.3-2.1-4.4-3.8
				c-1.2-1.9-4.4-1.5-4.2,1c0.6,7.4,7.9,7.8,13.2,10.4c0.2-1.4,0.4-2.9,0.7-4.3c-1.2,0-2.4-0.2-3.6-0.7c-2.8-0.9-3.4,3-1.3,4.2
				c5,2.9,10.1,3.9,15.8,3.2c-0.7-1.4-1.5-2.9-2.2-4.3c-1,0.9-2.1,1.2-3.4,0.8c-3-0.4-2.1,3.8-0.1,4.6c11.2,4.1,22.8,0.7,33.6-3
				c2.6-0.9,1.4-4.7-1.1-4.6c-3.5,0.1-6.3,1.3-8.8,3.7c-1.8,1.7,0.8,4.3,2.7,4c9.7-2,18.3-6.5,25.5-13.4c1.3-1.2,0.1-3.7-1.5-3.9
				c-10.9-1.8-22.1-3.7-32-8.7c-4.8-2.5-8.2-6-12.4-9.2c-4.2-3.2-8.9-4.8-12.7-8.7c-0.8,1.2-1.6,2.4-2.4,3.6
				c4.2,2.6,8.3,5.4,12.3,8.4c2,1.5,5.3-0.3,3.4-2.7c-4.2-5.3-11.3-8.7-17.1-11.8c-2.9-1.5-4.5,2.6-1.8,4c4.5,2.4,10.2,4.7,13.6,8.5
				c0.8-1.2,1.6-2.4,2.4-3.6c-6.4-3-10.9-8.7-17.2-12c-7.1-3.7-13.9-6.4-20.2-11.5c-2-1.6-5.2,0.4-3.4,2.7
				c10.5,13.2,16.1,29.2,16.2,46.1c1.6,0,3.1,0.1,4.7,0.1c-0.5-2.4,0.1-5-0.5-7.4c-0.5-2-4.6-3.8-4.7-0.7c-0.1,2.5-0.6,5.1-0.7,7.6
				c0,1.4,1,3.1,2.6,3c2.3-0.2,4.1,0.3,5.9,1.9c1.3,1.2,4.3,0.7,3.8-1.6c-1.8-8.2-3.8-16.3-5.9-24.4c-1.5-5.7-2.1-14.9-7.5-18.3
				c-2.4-1.4-4.6,2-2.4,3.6c9.2,6.7,16,15.6,19.9,26.2c1.4-0.5,2.7-1.1,4.1-1.6c-4.6-7-8-14.4-10.4-22.4c-0.7-2.4-4.7-2.3-4.5,0.5
				c0.5,8.7,0.9,17.5,2.6,26.1c0.9,4.6,1.4,13.1,6.4,15.2c1.3,0.5,2.5,0.3,3.8,0.5c1.8,0.3,3.3,1,5,1.7c3.4,1.3,7,2.1,10.6,2.4
				c7.5,0.7,15.1-0.8,22.3-2.6c3.8-1,12.8-1.9,13.3-7.2c0.4-4.7-4.8-5.6-8.3-4.9c-15.9,3.2-31.2,5.3-45.9-3.4
				c-0.8-0.5-2.2-0.5-2.8,0.3c-1.8,2.6-1.7,5.5,0.4,7.9c3.1,3.8,8,2.9,12.3,3.9c5.2,1.2,9.3,3.7,14.9,3.3c6.6-0.4,13.2-2,19.7-3
				c3-0.5,1-4.4-1.1-4.6c-8.5-1-17.3,0.9-25.6-1c-8.5-1.9-14.3-8.5-19.8-14.7c-1.8-2-5,0.4-3.4,2.7c2.9,4,6.3,7.2,10.4,9.9
				c0.6-1.3,1.2-2.7,1.8-4c-3.3-1.4-7-2.9-7.8-6.9c-0.5-2.6,0-5.3-0.9-7.9c-1.7-5.2-5.8-9.2-9.6-12.9c-1,1.1-2,2.1-2.9,3.2
				c1.9,1.6,3.8,2.9,6.1,3.8c1.9,0.7,9.2,1.3,9.6,3.2c1.3-0.5,2.5-1,3.8-1.6c-2.5-2.3-4.3-4.8-5.8-7.8c-0.7-1.5-3.4-2.8-4.4-0.7
				c-2.2,5,1.7,9.9,3.9,14.2c3.5,6.8,7,13.6,10.4,20.4c1-0.8,2.1-1.7,3.1-2.5c-4.6-3.2-7.5-7.6-8.9-13c-1.2,0.7-2.4,1.4-3.7,2.1
				c5.3,5,11.2,10.3,18.4,12.2c8.2,2.3,17.1-3.3,24.9-0.1c0.4-1.4,0.8-2.8,1.3-4.2c-7.3-2.2-14.5-4.8-21.4-8.1
				c-6.2-2.9-13.6-6.2-16.6-12.8c-1.5,0.4-2.9,0.7-4.4,1.1c2.2,4.6,4.4,9.3,6.5,13.9c1.2-0.7,2.4-1.4,3.7-2.1
				c-3.7-2.8-6.4-6.1-8.1-10.4c-1.4,0.5-2.7,1.1-4.1,1.6c3.7,4.3,7.5,8.6,12.2,11.9c2,1.4,4.1,2.5,6.4,3.4c2.8,1,6.8,1.1,8.7,3.7
				c0.4-1.1,0.7-2.2,1.1-3.4c-5.4,1.3-8-1.5-11.7-4.6c-1.9-1.6-3.8-2.6-6.3-2.4c-1,0.1-1.9,0.6-2.1,1.7c-0.8,4.9,2.9,9.2,7.9,9.1
				c1.3,0,2.2-1,2.1-2.3c-0.2-2.7-2.2-4.6-4.9-4.8c-1.5-0.1-2.7,0.3-4,1.3c-1.6,1.2-3.4,5.6-5.9,4.8c0,1.5,0,3-0.1,4.6
				c3.3,0,6.6,0.1,9.8,0.1c3.2,0,2.3-4.6-0.5-4.7c-3.3,0-6.6-0.1-9.8-0.1c-2.9,0-2.4,3.9-0.1,4.6c1.9,0.5,3.2,0.5,5-0.4
				c0.9-0.5,1.5-1,2.2-1.8c0.4-0.5,3.6-4.1,3.6-3.7c0.7-0.8,1.4-1.5,2.1-2.3c-0.9-1.1-1.8-2.1-2.7-3.2c-0.7,0.6-1.4,1.1-2.1,1.7
				c3.4-0.2,6.9,5.2,10.2,6.5c2.9,1.1,5.9,1.1,9,0.4c1.5-0.4,1.9-2.2,1.1-3.4c-2.9-4-7.1-4.3-11.5-5.9c-6.6-2.4-11.4-7.9-15.8-13
				c-1.5-1.7-5.3-1.3-4.1,1.6c2.1,5.1,5.2,9.2,9.6,12.6c1.6,1.2,4.8,0.4,3.7-2.1c-2.2-4.6-4.4-9.3-6.5-13.9
				c-1.2-2.6-5.7-1.9-4.4,1.1c3.1,7,9.3,10.8,15.9,14.2c8.3,4.2,16.9,7.5,25.8,10.2c2.7,0.8,3.7-3.2,1.3-4.2
				c-7.1-2.9-13.2-0.1-20.4,0.2c-8.9,0.4-15.7-5.9-21.8-11.6c-1.8-1.7-4.3-0.2-3.7,2.1c1.8,6.7,5.8,12,11.5,15.9
				c1.6,1.1,4.1-0.7,3.1-2.5c-2.6-5-5.1-10-7.7-15c-1.2-2.4-2.4-4.7-3.6-7.1c-1.1-2.2-4.2-6.4-3-9c-1.5-0.2-2.9-0.4-4.4-0.7
				c1.8,3.8,4.1,7.1,7.2,9.9c1.3,1.2,4.3,0.7,3.8-1.6c-0.6-2.7-1.9-4.6-4.6-5.8c-4.5-1.9-8.9-1.1-12.9-4.5c-2.4-2-5.2,1-2.9,3.2
				c2.7,2.5,5.4,5.1,7.1,8.4c1.9,3.5,1,6.9,2,10.6c1.3,5,5.9,7.6,10.3,9.5c3,1.3,4.4-2.4,1.8-4c-3.4-2.2-6.1-4.8-8.4-8.1
				c-1.1,0.9-2.2,1.8-3.4,2.7c5.7,6.5,11.9,13,20.4,15.5c9.2,2.7,19.1,0.5,28.5,1.6c-0.4-1.5-0.7-3.1-1.1-4.6
				c-7.3,1.2-16.9,4.3-24.1,2.5c-2.8-0.7-5.4-2.1-8.2-2.8c-1.4-0.4-11.8-1-9.7-4c-0.9,0.1-1.8,0.2-2.8,0.3c9,5.4,19.3,7.5,29.7,7.1
				c5.1-0.2,10.2-0.9,15.2-2c1.1-0.2,2.9-1.1,3.9-1c1.3-0.5,1.5-0.4,0.5,0.3c-0.6,0.7-1.3,1.1-2.3,1c-2.7,1-5.8,1.6-8.6,2.2
				c-6.1,1.4-12.3,2.3-18.5,1.8c-5.5-0.5-10.3-3-15.6-4.1c-3.1-0.6-3.1-3.1-3.9-6c-1-3.7-1.6-7.5-2.1-11.3
				c-0.9-6.5-1.2-13.1-1.5-19.6c-1.5,0.2-3,0.3-4.5,0.5c2.5,8.4,6.2,16.2,11,23.5c1.4,2.1,5.1,1.1,4.1-1.6
				c-4.2-11.4-11.5-21.2-21.4-28.4c-0.8,1.2-1.6,2.4-2.4,3.6c2.1,1.3,2.4,5.9,3,8.1c0.9,3.3,1.8,6.7,2.7,10
				c1.8,6.8,3.4,13.6,4.9,20.4c1.3-0.5,2.5-1,3.8-1.6c-2.7-2.5-5.7-3.7-9.3-3.4c0.9,1,1.7,2,2.6,3c0.1-2.5,0.6-5.1,0.7-7.6
				c-1.6-0.2-3.1-0.5-4.7-0.7c0.5,2.4-0.1,5,0.5,7.4c0.6,2.7,4.7,3.4,4.7,0.1c-0.1-17.6-6.1-34.6-17.1-48.4
				c-1.1,0.9-2.2,1.8-3.4,2.7c6.1,4.9,12.7,8.1,19.7,11.5c6.9,3.4,11.8,9.5,18.8,12.8c2.7,1.2,4.2-1.6,2.4-3.6
				c-3.7-4.2-9.9-6.7-14.7-9.3c-0.6,1.3-1.2,2.7-1.8,4c5,2.7,11.6,5.5,15.2,10c1.1-0.9,2.2-1.8,3.4-2.7c-4.4-3.3-8.8-6.3-13.4-9.2
				c-2.5-1.6-4.2,1.8-2.4,3.6c1.9,2,4,3.8,6.3,5.3c2.2,1.4,4.8,2.3,6.9,3.8c4.5,3.3,8,7,13,9.6c10.3,5.3,21.9,7.3,33.2,9.2
				c-0.5-1.3-1-2.6-1.5-3.9c-6.6,6.4-14.5,10.4-23.5,12.3c0.9,1.3,1.8,2.6,2.7,4c1.7-1.6,3.3-2.4,5.6-2.4c-0.4-1.5-0.7-3.1-1.1-4.6
				c-10.1,3.5-20.8,6.9-31.2,3.1c0,1.5,0,3-0.1,4.6c2.1,0.3,3.9-0.1,5.7-1.4c2.3-1.6,0.1-4.6-2.2-4.3c-4.4,0.5-8.4-0.4-12.2-2.7
				c-0.4,1.4-0.8,2.8-1.3,4.2c1.6,0.5,3.1,0.8,4.8,0.9c2.6,0.1,2.6-3.4,0.7-4.3c-3-1.5-10.1-2.2-10.4-6.3c-1.4,0.3-2.8,0.7-4.2,1
				c1.7,2.6,3.6,4.3,6.4,5.6c2.4,1.1,4.6-1.8,2.4-3.6c-2.9-2.4-4.7-5.6-6.9-8.6C309.8,446.9,305.8,448.9,307.8,451.5L307.8,451.5z"
				/>
		</g>
	</g>
	<g id="XMLID_129_">
		<g id="XMLID_290_">
			<path id="XMLID_303_" class="st0" d="M343.5,444.5c-4.6-3.5-9.2-7.4-14.1-10.5c-2.4-1.5-4.9-1.8-7.5-0.7c-3.4,1.5-5,4.6-5,8.2
				c0,2.8,0.2,7,3.5,7.5c5.4,0.8,5.6-6.6-0.6-5.5c-6.9,1.2-10.5,9-8.3,15.2c1.6-0.3,3.3-0.6,4.9-0.9c-1.4-3.7-2.8-7.5-3-11.4
				c-0.2-4.3,1.6-8.4,1.6-12.6c0-7.4-7.4-13.3-11.8-18.6c-1.2-1.4-5.9,0.1-4.6,1.6c2.7,3.2,5.5,6.3,8.1,9.6c3,3.7,3.8,6.9,3,11.7
				c-1.3,7.7-0.9,13.2,1.8,20.7c0.7,1.8,5.5,0.8,4.9-0.9c-1-3-1-6.2,0.8-8.9c1.4-2.1,4.9-1.9,5.1-4.4c0.1-1.8-0.8-3.4-0.3-5.3
				c1.7-6.2,5.5-1.6,8.5,0.6c3,2.3,6,4.5,9.1,6.8C340.8,447.7,345.4,445.9,343.5,444.5L343.5,444.5z"/>
		</g>
	</g>
	<g id="XMLID_132_">
		<g id="XMLID_306_">
			<path id="XMLID_310_" class="st0" d="M368.3,454.2c-2.3,0.1-4.7,0.1-7-0.1c1.3,0.9,2.6,1.8,3.8,2.7c0.9-1.2,2.1-1.8,3.5-1.8
				c0.7,0-1.1-1.4-1.2-1.5c-0.8-0.5-1.8-1.3-2.8-1.3c-1.6,0-2.9,0.7-3.8,2c-0.5,0.7,3.3,2.6,3.8,2.7c2.5,0.2,5,0.3,7.6,0.2
				c0.7,0-1.1-1.4-1.2-1.5C370.4,455,369.3,454.2,368.3,454.2L368.3,454.2z"/>
		</g>
	</g>
	<g id="XMLID_133_">
		<g id="XMLID_313_">
			<path id="XMLID_317_" class="st0" d="M368.5,455.2c1,0,2.1,0,3.1-0.1c0.7,0,1.2-0.5,0.8-1.1c-0.7-1.2-2.2-1.9-3.5-2.1
				c-0.5-0.1-2.3-0.3-2.1,0.7c0.2,1,1.8,1.6,2.6,1.8c-1.4-1.2-1.9-1.4-1.5-0.8c0.3-0.4,0.5-0.8,0.8-1.1c-1,0-2.1,0-3.1,0.1
				c-0.3,0-0.8,0.1-1,0.5c-0.1,0.4,0.2,0.8,0.4,1C366,454.8,367.3,455.2,368.5,455.2L368.5,455.2z"/>
		</g>
	</g>
	<g id="XMLID_134_">
		<g id="XMLID_320_">
			<path id="XMLID_326_" class="st0" d="M303.3,423.5c0.1,0.6,0,1.5-0.3,2.2c-0.3,1,0.4,2.5,1.2,3.2c0.6,0.6,1.7,1,2-0.1
				c0.5-1.4,0.5-2.8,0.3-4.3c-0.2-1.1-1-2.4-2-2.8C303.4,421.5,303.2,422.7,303.3,423.5L303.3,423.5z"/>
		</g>
	</g>
	<g id="XMLID_135_">
		<g id="XMLID_329_">
			<path id="XMLID_333_" class="st0" d="M314.4,462.6c-0.1-0.1,0.2,0.2,0.2,0.2c0.2,0.2,0.1,0.1,0.2,0.3c0.3,0.3,0.5,0.7,0.8,1
				c0.7,0.8,1.8,1,2.8,0.9c1.1-0.1,2.5-0.8,2.9-1.9c0.4-1.1-0.7-1.4-1.6-1.3c0.5,0.1,0.7,0.1,0.4,0c-0.1,0-0.1,0-0.1,0
				c0,0-0.2-0.2-0.3-0.2c-0.2-0.2-0.3-0.4-0.5-0.6c-0.5-0.7-0.9-1.1-1.7-1.4C316.3,458.8,312.2,461.5,314.4,462.6L314.4,462.6z"/>
		</g>
	</g>
	<g id="XMLID_152_">
		<g id="XMLID_336_">
			<path id="XMLID_340_" class="st0" d="M366.3,461.3c1.2-1,2.5-1.8,3.8-2.5c0.7-0.3-1.4-1.1-1.5-1.1c-0.8-0.2-2.2-0.7-3.1-0.3
				c-1.4,0.7-2.7,1.5-3.8,2.5c-0.6,0.5,1.3,1,1.5,1.1c0.6,0.2,1.2,0.3,1.9,0.4C365.4,461.4,366,461.5,366.3,461.3L366.3,461.3z"/>
		</g>
	</g>
</g>
<g id="Shape">
	<g id="XMLID_1_">
		<g id="XMLID_170_">
			<path id="XMLID_174_" d="M247,321.4c2.7-4.4,8.6-6.6,13.6-6.6c3.3,0,11.6,3.2,10.8,8.1c-0.5,3.1,4.3,4.5,4.8,1.3
				c1.1-6.5-5.7-12.8-11.5-14.1c-7.8-1.8-17.8,1.9-22,8.7C241,321.6,245.3,324.2,247,321.4L247,321.4z"/>
		</g>
	</g>
	<g id="XMLID_2_">
		<g id="XMLID_164_">
			<path id="XMLID_168_" d="M349.2,250.9c15.9,3,31.9,6.6,47.1,12.4c11.8,4.5,22.7,11,34.1,16.2c5.7,2.6,11.5,4.9,17,7.7
				c5,2.5,9.9,4.8,15.5,5.5c6.1,0.8,12.3-1.1,17.3,3.3c5.1,4.4,3.3,12.1,1.2,17.7c-10.2,27.6-29.5,54.1-56,67.8
				c-15.9,8.3-32.4,12.8-50.3,12.9c-16.7,0.1-34.5-0.9-50.5-5.9c-8.8-2.7-17.7-6.6-25.9-10.7c-7.3-3.6-13.4-8.4-18.4-14.8
				c-10-12.7-15.9-29.2-17.4-45.2c-0.3-3.2-5.3-3.2-5,0c1.3,14.7,6,29.2,13.8,41.7c3.7,5.9,8.2,11.5,13.7,15.9
				c6.3,5.1,13.7,8.2,21,11.3c8.3,3.4,16.3,6.9,25.1,8.8c8.5,1.8,17.2,2.6,25.9,3.3c19.1,1.3,37.7,0.8,55.7-6.4
				c15.8-6.3,29.8-14.7,41.7-27c11.5-11.8,20-25.7,27-40.6c4.5-9.6,11.4-24.3,1.3-32.7c-4.5-3.7-8.7-4.1-14.5-4.1
				c-7.5,0.1-13.5-2.4-20.1-5.7c-7.1-3.6-14.6-6.4-21.8-9.9c-7.2-3.6-14.4-7.3-21.7-10.7c-17.2-7.9-36.2-12.1-54.7-15.6
				C347.4,245.5,346,250.3,349.2,250.9L349.2,250.9z"/>
		</g>
	</g>
	<g id="XMLID_3_">
		<g id="XMLID_158_">
			<path id="XMLID_162_" d="M245.5,322.5c4.1-1.6,8.8-3.6,13.3-3.5c4.7,0.1,9.2,3.2,13,5.6c2.7,1.7,5.2-2.6,2.5-4.3
				c-4.2-2.6-9-5.7-14-6.2c-5.4-0.6-11.2,1.6-16.1,3.5C241.3,318.9,242.5,323.8,245.5,322.5L245.5,322.5z"/>
		</g>
	</g>
	<g id="XMLID_4_">
		<g id="XMLID_155_">
			<path id="XMLID_213_" d="M346,250.2c-2.2-0.7-2.7-9.7-3.1-11.5c-0.9-4.2-2.5-8.3-5-11.8c-5.7-8.2-13.9-8.7-22.6-5.1
				c-4.9,2-10,3.7-14.7,5.9c-5.5,2.6-11.2,5.4-16.9,7.5c-5.1,1.9-11,1.4-16.3,1.3c-5.7-0.2-11.5-1.3-16.4-4.3
				c-2.8-1.7-5.3,2.6-2.5,4.3c8.3,5.1,18.9,5.5,28.4,4.9c11.4-0.7,21.5-7.8,32.1-11.5c5.3-1.9,10.8-6,16.6-5.7
				c6.3,0.3,10.2,7.2,11.9,12.5c1.7,5.3,1,16.1,7.4,18.3C347.7,256.1,349,251.2,346,250.2L346,250.2z"/>
		</g>
	</g>
	<g id="XMLID_5_">
		<g id="XMLID_146_">
			<path id="XMLID_150_" d="M253.6,238.7c5,0.4,10.3,0.7,14.7-2c2.7-1.7,4.2-3.9,7.5-4.7c3.8-0.9,7.4-0.4,11.2-0.1
				c6,0.6,10.9-1.5,16.6-3.1c5-1.4,10.1-2.2,15.2-3.2c-0.6-1.5-1.3-3-1.9-4.6c-8.2,4.2-16.9,8.3-26.1,9.4c-1.7,0.2-3.4,0.2-5.1,0.4
				c-2.1,0.3-3.5,1.4-5.4,1.9c-2.2,0.6-4.9,0.3-7.2,0.6c-2.5,0.3-5,0.9-7.5,1.4c0.8,1.4,1.6,2.8,2.4,4.2c4.1-4,9.6-4.7,15-5.3
				c3.2-0.3,3.2-5.4,0-5c-6.9,0.8-13.4,1.8-18.6,6.7c-1.9,1.8,0.1,4.7,2.4,4.2c2.9-0.6,5.8-1.3,8.7-1.5c2-0.2,4,0,5.9-0.5
				c2.2-0.6,3.9-1.7,6.3-1.9c2.1-0.2,4.2-0.4,6.3-0.8c8.9-1.7,17.2-5.6,25.2-9.6c2.7-1.4,0.7-5-1.9-4.6c-5,0.9-9.9,1.8-14.9,3.1
				c-2.6,0.6-4.9,1.6-7.5,2.4c-3.3,0.9-6.6,0.7-10,0.2c-4.5-0.6-11.2-0.3-15.2,2.2c-3.2,2-4.6,4.6-8.8,5c-2.5,0.2-5.1,0-7.6-0.2
				C250.4,233.4,250.4,238.4,253.6,238.7L253.6,238.7z"/>
		</g>
	</g>
	<g id="XMLID_6_">
		<g id="XMLID_139_">
			<path id="XMLID_143_" d="M187.3,269c3.6-12.7-3.5-28.2-9.6-39c-2.1-3.6-4.6-6.3-7.5-9.3c-5.3-5.6-10.4-11.1-16-16.4
				c-1.5-1.5-3.7-4-2.1-6.3c1.1-1.5,4.4-1.8,6-2.1c3.8-0.7,7.6-1.3,11.4-1.9c8.5-1.4,17-0.8,25.5,0.2c16,1.8,33.3,5.4,47.8,12.7
				c14.4,7.2,26.1,18.8,41.2,24.9c-0.6-1-1.2-2.1-1.7-3.1c-0.5,1.9-4.7,2.4-6.2,2.3c-3-0.1-5.4-1.6-7.3-3.8
				c-3.2-3.5-5.5-7.7-8.8-11.1c-6.7-6.9-15.2-12.5-23.4-17.4c-18.1-10.8-38.4-11.7-58.9-10.4c-3.2,0.2-3.2,5.2,0,5
				c12.8-0.8,25.4-1.2,37.9,2.2c6.1,1.7,11.4,3.5,16.9,6.6c5.2,3,10.3,6.4,15.2,10c4.9,3.6,9.5,7.7,13,12.6c2.5,3.5,4.8,7.2,8.6,9.5
				c4.9,2.9,16.1,2.9,17.8-4.1c0.4-1.4-0.5-2.6-1.7-3.1c-15.1-6.1-26.7-18.2-41.4-25.1c-14.5-6.9-31.2-10.5-47.1-12.5
				c-8.2-1-17-2.1-25.2-0.9c-4.1,0.6-8.2,1.3-12.2,2.1c-3.3,0.6-6.8,0.9-9.6,2.9c-4.5,3.2-4.4,8.4-1.1,12.4c2.4,2.8,5.5,5,8.1,7.7
				c2.9,2.9,5.6,6,8.4,9c1.8,2,3.8,3.7,5.4,5.8c2.5,3.1,4.3,7,6.1,10.6c4,8.1,8.3,19.8,5.8,28.8C181.6,270.8,186.4,272.1,187.3,269
				L187.3,269z"/>
		</g>
	</g>
	<g id="XMLID_7_">
		<g id="XMLID_259_">
			<path id="XMLID_269_" d="M260.9,220.7c1.4,2.3,3,4.4,4.9,6.3c1.6,1.6,3.9,4,6.4,3.6c2.7-0.5,3.4-3.8,1.6-5.7
				c-0.9-1-2.1-1.1-3.3-1.4c-1.4-0.3-2.5-1-3.6-1.8c-2.6-1.9-5.1,2.4-2.5,4.3c1.1,0.8,2.3,1.5,3.7,2c0.6,0.2,1.6,0.6,2.2,0.6
				c2.1-1.4,2.6-2.4,1.3-3.1c-0.2-0.2-0.5-0.4-0.7-0.6c-2.3-1.9-4.2-4.2-5.7-6.7C263.5,215.4,259.2,217.9,260.9,220.7L260.9,220.7z"
				/>
		</g>
	</g>
	<g id="XMLID_16_">
		<g id="XMLID_563_">
			<path id="XMLID_567_" d="M198.1,271.1c-37.6,39.2-60.7,97.3-42.5,150.7c1.3,3.9,2.2,7.7,3.9,11.5c1.7,3.6,3.5,7,5.5,10.4
				c3.9,6.8,8.4,13.2,12.7,19.8c1.8,2.7,6.1,0.2,4.3-2.5c-4.6-7-9.3-13.8-13.5-21.1c-2.1-3.7-4.3-7.5-5.8-11.5
				c-1.5-3.9-2.4-8-3.9-11.9c-6.2-16.1-5.8-36.2-3.2-53.1c5.3-33.6,22.5-64.4,45.9-88.7C203.9,272.3,200.4,268.8,198.1,271.1
				L198.1,271.1z"/>
		</g>
	</g>
	<g id="XMLID_11_">
		<g id="XMLID_118_">
			<path id="XMLID_122_" d="M170,404c-2.1,14,4.4,26.8,12.8,37.6c7.8,10.1,17.1,19.2,27.5,26.6c20.5,14.7,45.1,20.8,69.9,15.8
				c-0.1,0,0.8-0.2,0.7-0.3c-20.1-23-41.4-48.3-42.8-80.3c0-0.6-5-0.4-5,0.1c0.7,14.7,5.7,28.7,13,41.4c3.9,6.7,8.3,13,13.1,19
				c2.2,2.8,4.5,5.6,6.8,8.3c2.5,2.9,6.3,6.1,8.2,9.5c1.4,2.6-0.4,2.3-2.8,2.7c-3.3,0.4-6.6,0.6-10,0.5c-5.1-0.1-10.1-0.8-15-2.1
				c-7.1-1.8-14-4.6-20.4-8.1c-12.5-6.8-23.4-16.3-32.8-26.9c-10.7-12.1-20.6-27.2-18.1-44C175.1,403.7,170.2,403.2,170,404L170,404
				z"/>
		</g>
	</g>
	<g id="XMLID_13_">
		<g id="XMLID_111_">
			<path id="XMLID_115_" d="M192.1,377.6c-7.6,2-13.5-11.8-16-17.2c-1-2.1-5.9-1.6-4.6,1c3.9,8.3,11,22.9,22.5,19.9
				C197.1,380.5,194.7,376.9,192.1,377.6L192.1,377.6z"/>
		</g>
	</g>
	<g id="XMLID_25_">
		<g id="XMLID_105_">
			<path id="XMLID_109_" d="M200.3,364.5c-5.1,0.6-11.4-8.3-13.7-12.2c-2.4-4-3.6-8.3-3.6-13c0-1.4-4.5-3.3-4.5-1.8
				c-0.1,8.5,4.3,15.6,10,21.6c4,4.2,8.8,9.2,15.1,8.4C205.5,367.2,201.7,364.3,200.3,364.5L200.3,364.5z"/>
		</g>
	</g>
	<g id="XMLID_32_">
		<g id="XMLID_98_">
			<path id="XMLID_103_" d="M188.2,306.7c-1.4,8.9-2.7,18.3,1.6,26.7c3.4,6.7,9.5,14.5,16.7,17.3c1.3,0.5,5.7-1.2,4-1.8
				c-6.8-2.6-12.7-10.3-15.9-16.7c-4.1-8.1-2.9-17.1-1.6-25.8C193.3,304.7,188.4,305.3,188.2,306.7L188.2,306.7z"/>
		</g>
	</g>
	<g id="XMLID_33_">
		<g id="XMLID_92_">
			<path id="XMLID_96_" d="M247.8,297.9c13.1-2.6,25.6-3.7,38.3,1.6c10.7,4.5,19.7,12.4,25.6,22.3c1,1.7,5.6-0.1,4.7-1.6
				c-6.4-10.9-16.3-19.4-28.1-24c-13.3-5.2-26.4-4-40.1-1.3C245.8,295.3,244.6,298.5,247.8,297.9L247.8,297.9z"/>
		</g>
	</g>
	<g id="XMLID_46_">
		<g id="XMLID_84_">
			<path id="XMLID_90_" d="M327.4,263.3c3.8,18.7-2.5,36.3-17.1,48.6c-0.8,0.7,0.8,4.3,0,5c17.5-14.7,21.5-37,17.1-58.6
				C327.8,259.9,327.1,261.7,327.4,263.3L327.4,263.3z"/>
		</g>
	</g>
	<g id="XMLID_48_">
		<g id="XMLID_77_">
			<path id="XMLID_82_" d="M322.4,229.2c-5.5,13-19.1,18.9-30.1,26.5c-12.2,8.4-18,19.8-23.1,33.3c-0.6,1.5,0.5,3.6,0,5
				c5.1-13.5,11-24.9,23.1-33.3c11-7.6,24.6-13.4,30.1-26.5C323,232.8,321.8,230.6,322.4,229.2L322.4,229.2z"/>
		</g>
	</g>
	<g id="XMLID_60_">
		<g id="XMLID_70_">
			<path id="XMLID_75_" d="M458.4,299.6c0,1.6,0,3.2,0,4.7c0,0.5-0.3,1.9,0,2.4c0-1.4,0-1.6-0.3-0.7c-0.1,0.3-0.3,0.5-0.5,0.6
				c-1.9,1.8-4.5-0.5-4.5-2.6c0,1.6,0,3.1,0,4.7c0.4-3.1,2.7-4.9,4.5-7.2c0.3-0.4,0-2,0-2.5c0-0.5-0.3-2.1,0-2.5
				c-2,2.5-4.4,4.5-4.6,7.9c-0.1,2.1-0.7,5.9,1.3,7.2c2.7,1.9,4-0.8,4-3.1c0.1-3.8,0-7.7-0.1-11.5c0-0.1,0-1.8,0-0.9
				C458.4,297.3,458.4,298.5,458.4,299.6L458.4,299.6z"/>
		</g>
	</g>
	<g id="XMLID_67_">
		<g id="XMLID_63_">
			<path id="XMLID_68_" d="M456.9,302.4c0.3,1.9,0.4-1.5,0.1-0.3c-0.1,0.5-0.2,1-0.3,1.4c0,0.1-0.4,1.8-0.5,1.8
				c-0.1,0-0.1-1.6-0.1-1.8c0-0.5-0.1-0.9-0.1-1.4c-0.1-0.9,0.2-1.2-0.4-0.5c-0.7,0.8-1.3,1.7-2.1,2.5c-0.3,0.3,0,2.1,0,2.5
				c0,0.3,0.3,2.3,0,2.5c2.2-1.7,4.3-3.5,4.5-6.4c0.1-2.1,0.4-4.7-0.3-6.7c0,1.7,0,3.3,0,5c0.2,0.6,0.4,1.3,0.6,2
				c0.1,0.3,0.1,0.7,0.2,1c0.1,1.1,0.1,0.4,0-1.9c-0.3,0.5-0.2,1.4-0.4,2c-0.2,0.7-0.4,1.3-0.7,1.9c-0.6,1.4,0.6,3.6,0,5
				c1-2.5,1.2-4.9,1.2-7.5c0-2.6,0-5-0.9-7.5c0.5,1.5-0.5,3.5,0,5c0.2,0.5,0.4,1.1,0.3,1.7c0-1.6,0-3.3,0-4.9
				c-0.3,2.9-2.3,4.7-4.5,6.3c0,1.7,0,3.3,0,5c0.7-0.7,1.3-1.4,1.9-2.2c0.1-0.2,0.2-0.4,0.3-0.6c0.2-0.4,0.2-0.4,0.2,0.1
				c0.2,0.3,0.1,1.1,0.1,1.4c0,0.6,0,1.2,0.1,1.8c0.2,0.8,0,0.8,0.3,0c0.4-1,0.5-2.2,0.6-3.2c0.2-2.9,0.3-6.1-0.2-9
				C457.1,299,456.6,300.7,456.9,302.4L456.9,302.4z"/>
		</g>
	</g>
	<g id="XMLID_74_">
		<g id="XMLID_56_">
			<path id="XMLID_61_" d="M457.3,308c0,0.2,0.1,0.5,0.1,0.7c0-1.7,0-3.3,0-5c-0.2,0.8-0.5,1.4-1.4,0.9c0,1.7,0,3.3,0,5
				c2.9-0.7,2.8-3.8,2.8-6.2c0-0.8,0.3-2.7,0-3.5c-0.5-1-2.3,2-2.8,2.6c-0.3,0.4,0,2,0,2.5c0,0.4,0.3,2.3,0,2.5
				c0.5-0.4,1-0.9,1.3-1.5c0.3-0.5,0.3-1.8,0.7-0.6c0-1.7,0-3.3,0-5c-0.2,2-2.1,3-2.7,4.8c-0.3,1-0.2,2.1-0.2,3.2
				c0,0.8-0.3,2.4,0,3.2c0.2,0.5,0.9,1.1,1.4,1.1c1.2-0.1,2.4-3.8,2.5-4.7c0.2-1.1,0.1-2.2,0.1-3.3c0-1.1,0.1-2.2,0-3.3
				c-0.2-2-1.3-3.9-2-5.7c0.6,1.4-0.6,3.6,0,5c0.8,1.9,1.7,3.7,2,5.7c0-0.2,0-0.5,0-0.7c0,0.3,0,0.5,0,0.8c0-1.4,0-2.8,0-4.3
				c-0.2,1.4-0.9,4.7-2.5,5.3c-0.8,0.3-0.4,0.2-1-0.5c-0.4-0.4-0.2,1.2-0.5-0.4c0,1.7,0,3.3,0,5c0.1-1.9,1.1-2.9,2.2-4.4
				c0.7-1,0.7-1.9,0.7-3c0-1.1,0.3-2.6,0-3.7c-0.3-1.1,0-0.6-0.4-0.1c-0.6,0.6-0.9,1.4-1.6,2.1c0,1.7,0,3.3,0,5
				c0.4-0.5,2.4-3.4,2.7-2.7c0-0.2,0-0.5,0-0.7c0-3.8-0.1-1.4-0.9-0.5c-0.5,0.6-1,0.9-1.8,1c0,0-0.2,4.9,0,5c2,1.1,1.4-5.4,1.3-6.6
				C457.6,304.7,457.1,306.4,457.3,308L457.3,308z"/>
		</g>
	</g>
	<g id="XMLID_81_">
		<g id="XMLID_50_">
			<path id="XMLID_54_" d="M352,396.6c-4.1,8.1-9.1,15.7-15,22.6c0,1.7,0,3.3,0,5c1.2-7.7,0.7-16.5-3.9-23.1
				c-1.5-2.1-3.7-5.1-6.3-5.8c-3.4-0.9-4.2,2.8-5.7,5.1c-3.5,5.2-9,8.5-15.1,9.7c0,1.7,0,3.3,0,5c1-6.1,2.3-14.7-0.3-20.7
				c-5.8-13.4-20.4-3.1-28.5,2c0,1.6,0,3.3,0,4.9c0.3-9.8,0.7-19.7,0.3-29.5c-0.2-4.5-3.6-3.9-7.3-2.9c-5.4,1.5-9.8,4.8-13,9.3
				c0,1.6,0,3.3,0,4.9c0.4-11.2,3.7-21.8,9.8-31.2c0.8-1.2-0.8-3.8,0-5c-6.2,9.4-9.5,20.1-9.9,31.3c0,1,0.6,4.1,0,4.9
				c3.2-4.5,7.6-7.8,13-9.3c1.9-0.5,4.8-1.4,6.6-0.3c1.4,2.1,1.6,4.5,0.6,7.2c0.1,2.7,0.1,5.4,0,8c0,2.5-0.1,5-0.2,7.5
				c0,0.6,0.4,4.7,0,4.9c5.4-3.4,14.3-10.3,21.2-8.8c8.1,1.8,8.7,10.9,7.6,17.4c-0.1,0.5,0.1,5,0,5c4-0.8,7.7-2.3,10.8-5
				c1.6-1.4,3.1-2.9,4.3-4.7c1.1-1.6,1.8-4.4,3.8-5.1c3.6-1.2,7.5,4.5,9,7c2.1,3.5,3.8,7.8,3.1,11.9c-0.2,1.1,0.6,4.3,0,5
				c5.9-7,10.9-14.5,15-22.6C352.7,400.2,351.3,397.9,352,396.6L352,396.6z"/>
		</g>
	</g>
	<g id="XMLID_88_">
		<g id="XMLID_42_">
			<path id="XMLID_47_" d="M248,400.9c0.9-0.6,5.7-4.7,6.6-3.3c0-1.6,0-3.1,0-4.7c-0.1,5.4-1.6,11.1-2.3,16.5c-0.1,0.8,0.5,4.7,0,5
				c4.3-3.1,8.4-6.6,12-10.5c0.5-0.6,1.6-2.3,2.2-2.5c0.7-1.2,1-0.8,0.8,1.2c0.1,0.6,0.1,1.3,0.2,1.9c0.4,4.2,0.7,8.5,0.7,12.8
				c0,0.4-0.2,4.2,0,4.3c4.9,1.1,9.6-0.4,13.5-3.5c2-1.6,3.7-3.6,5.2-5.6c0.7-0.9,1.2-2,2-2.8c0.7-1.7,1-1.9,1.1-0.7
				c0.2,0.7,0.3,1.4,0.3,2.1c0-1.3,0-2.5,0-3.8c0,0.5,0,1,0,1.4c0-0.4,0-0.8,0-1.2c-1.3,12.6-13.8,18.3-25.3,17.7
				c-13.6-0.8-17.7-19-16-30.2c0.2-1.6-0.2-3.4,0-5c-1.1,7.6-1.1,16,0.8,23.5c1.5,5.7,4,13.3,9.9,15.7c5.3,2.1,12.6,1.2,17.8-0.8
				c9.4-3.5,13.1-11.4,12.9-20.8c0-0.9,0.1-2.1-0.2-3c-0.9-2.6-1.2,0-2.2,1.4c-1,1.4-2,2.8-3.2,4c-4.3,4.8-10,8-16.5,6.5
				c0,1.4,0,2.8,0,4.3c0-5.9,0-11.7-0.4-17.5c-0.1-0.7-0.3-7.5-0.8-7.6c-0.4-0.1-4.1,4.5-4.5,5c-3.2,3.2-6.6,6-10.3,8.7
				c0,1.7,0,3.3,0,5c0.9-6,2.3-12.3,2.4-18.4c0-0.6,0.4-2.9,0-3.4c-1.1-1.4-5.3,2.4-6.6,3.3C247.2,396.4,248.7,400.4,248,400.9
				L248,400.9z"/>
		</g>
	</g>
	<g id="XMLID_89_">
		<g id="XMLID_36_">
			<path id="XMLID_40_" d="M304,308.3c8.5-7.7,12.8-18.4,14.1-29.7c0.5-4.9,1.4-12.4-0.2-17.2c-4-12-18.4-2.7-24,2.2
				c-8.4,7.4-15.4,16.5-17.9,27.6c-0.2,0.8,0.2,1.7,0,2.5c1.9-8.4,6.3-15.7,12.1-22c5.1-5.5,12.6-13.5,20.7-13.6
				c13-0.1,10,16.7,8,25.2c-2,8.7-6.3,16.5-12.9,22.5C303.6,306.2,304.4,307.9,304,308.3L304,308.3z"/>
		</g>
	</g>
	<g id="XMLID_102_">
		<g id="XMLID_28_">
			<path id="XMLID_34_" d="M293.2,267.4c3.7-0.7,7.3-3.4,11.1-1.9c3.6,1.4,5.7,5.3,6.6,8.8c2.4,10.1-4.6,20-10.5,27.4
				c-0.4,0.5,0.4,2,0,2.5c6.2-7.9,11.2-16.2,11.1-26.5c0-3.9-0.6-8-3-11.3c-4.5-6.1-9.4-2.6-15.3-1.5
				C293.1,264.9,293.4,267.4,293.2,267.4L293.2,267.4z"/>
		</g>
	</g>
	<g id="XMLID_104_">
		<g id="XMLID_270_">
			<path id="XMLID_274_" d="M305.2,456.4c7.9,12.3,26,13.8,39.3,13.6c16.1-0.3,31.3-5.3,41.6-18.2c0.1-0.1-0.9-0.3-0.7-0.2
				c-17.2-2.6-35.4-5.7-47.9-19c-0.8-0.8-4.8,0.3-4.8,0.3c6.5,6.8,14.7,11.2,23.6,14.1c5.3,1.7,10.7,2.8,16.1,3.7
				c1.8,0.3,6.9,0.3,7.6,1.8c0.6,1.4-5,5.8-6.2,6.7c-10,8-22.9,10.8-35.5,9.8c-10.4-0.8-22.2-3.4-28.1-12.7
				C309.5,455.3,305.3,456.7,305.2,456.4L305.2,456.4z"/>
		</g>
	</g>
</g>
</svg>
